<?xml version="1.0" encoding="utf-8" standalone="no"?>
<!DOCTYPE svg PUBLIC "-//W3C//DTD SVG 1.1//EN"
  "http://www.w3.org/Graphics/SVG/1.1/DTD/svg11.dtd">
<svg xmlns:xlink="http://www.w3.org/1999/xlink" width="548.1pt" height="230.3532pt" viewBox="0 0 548.1 230.3532" xmlns="http://www.w3.org/2000/svg" version="1.1">
 <metadata>
  <rdf:RDF xmlns:dc="http://purl.org/dc/elements/1.1/" xmlns:cc="http://creativecommons.org/ns#" xmlns:rdf="http://www.w3.org/1999/02/22-rdf-syntax-ns#">
   <cc:Work>
    <dc:type rdf:resource="http://purl.org/dc/dcmitype/StillImage"/>
    <dc:date>2026-09-09T16:31:25.524543</dc:date>
    <dc:format>image/svg+xml</dc:format>
    <dc:creator>
     <cc:Agent>
      <dc:title>Matplotlib v3.10.9, https://matplotlib.org/</dc:title>
     </cc:Agent>
    </dc:creator>
   </cc:Work>
  </rdf:RDF>
 </metadata>
 <defs>
  <style type="text/css">*{stroke-linejoin: round; stroke-linecap: butt}</style>
 </defs>
 <g id="figure_1">
  <g id="patch_1">
   <path d="M 0 230.3532 
L 548.1 230.3532 
L 548.1 0 
L 0 0 
z
" style="fill: #ffffff"/>
  </g>
  <g id="axes_1">
   <g id="patch_2">
    <path d="M 62.677273 177.225927 
L 540.6 177.225927 
L 540.6 12.9 
L 62.677273 12.9 
z
" style="fill: #ffffff"/>
   </g>
   <g id="matplotlib.axis_1">
    <g id="xtick_1">
     <g id="line2d_1">
      <path d="M 69.810448 177.225927 
L 69.810448 12.9 
" clip-path="url(#p64184d56db)" style="fill: none; stroke-dasharray: 1.1,2.86; stroke-dashoffset: 0; stroke: #c2c6cd; stroke-width: 1.1"/>
     </g>
     <g id="line2d_2">
      <defs>
       <path id="m9a346d5cc1" d="M 0 0 
L 0 3.5 
" style="stroke: #514f52; stroke-width: 1.35"/>
      </defs>
      <g>
       <use xlink:href="#m9a346d5cc1" x="69.810448" y="177.225927" style="fill: #514f52; stroke: #514f52; stroke-width: 1.35"/>
      </g>
     </g>
     <g id="text_1">
      <text style="font-size: 14px; font-family: 'DejaVu Sans'; text-anchor: middle; fill: #514f52" x="69.810448" y="195.36374" transform="rotate(-0 69.810448 195.36374)">5</text>
     </g>
    </g>
    <g id="xtick_2">
     <g id="line2d_3">
      <path d="M 129.253573 177.225927 
L 129.253573 12.9 
" clip-path="url(#p64184d56db)" style="fill: none; stroke-dasharray: 1.1,2.86; stroke-dashoffset: 0; stroke: #c2c6cd; stroke-width: 1.1"/>
     </g>
     <g id="line2d_4">
      <g>
       <use xlink:href="#m9a346d5cc1" x="129.253573" y="177.225927" style="fill: #514f52; stroke: #514f52; stroke-width: 1.35"/>
      </g>
     </g>
     <g id="text_2">
      <text style="font-size: 14px; font-family: 'DejaVu Sans'; text-anchor: middle; fill: #514f52" x="129.253573" y="195.36374" transform="rotate(-0 129.253573 195.36374)">10</text>
     </g>
    </g>
    <g id="xtick_3">
     <g id="line2d_5">
      <path d="M 188.696698 177.225927 
L 188.696698 12.9 
" clip-path="url(#p64184d56db)" style="fill: none; stroke-dasharray: 1.1,2.86; stroke-dashoffset: 0; stroke: #c2c6cd; stroke-width: 1.1"/>
     </g>
     <g id="line2d_6">
      <g>
       <use xlink:href="#m9a346d5cc1" x="188.696698" y="177.225927" style="fill: #514f52; stroke: #514f52; stroke-width: 1.35"/>
      </g>
     </g>
     <g id="text_3">
      <text style="font-size: 14px; font-family: 'DejaVu Sans'; text-anchor: middle; fill: #514f52" x="188.696698" y="195.36374" transform="rotate(-0 188.696698 195.36374)">15</text>
     </g>
    </g>
    <g id="xtick_4">
     <g id="line2d_7">
      <path d="M 248.139824 177.225927 
L 248.139824 12.9 
" clip-path="url(#p64184d56db)" style="fill: none; stroke-dasharray: 1.1,2.86; stroke-dashoffset: 0; stroke: #c2c6cd; stroke-width: 1.1"/>
     </g>
     <g id="line2d_8">
      <g>
       <use xlink:href="#m9a346d5cc1" x="248.139824" y="177.225927" style="fill: #514f52; stroke: #514f52; stroke-width: 1.35"/>
      </g>
     </g>
     <g id="text_4">
      <text style="font-size: 14px; font-family: 'DejaVu Sans'; text-anchor: middle; fill: #514f52" x="248.139824" y="195.36374" transform="rotate(-0 248.139824 195.36374)">20</text>
     </g>
    </g>
    <g id="xtick_5">
     <g id="line2d_9">
      <path d="M 307.582949 177.225927 
L 307.582949 12.9 
" clip-path="url(#p64184d56db)" style="fill: none; stroke-dasharray: 1.1,2.86; stroke-dashoffset: 0; stroke: #c2c6cd; stroke-width: 1.1"/>
     </g>
     <g id="line2d_10">
      <g>
       <use xlink:href="#m9a346d5cc1" x="307.582949" y="177.225927" style="fill: #514f52; stroke: #514f52; stroke-width: 1.35"/>
      </g>
     </g>
     <g id="text_5">
      <text style="font-size: 14px; font-family: 'DejaVu Sans'; text-anchor: middle; fill: #514f52" x="307.582949" y="195.36374" transform="rotate(-0 307.582949 195.36374)">25</text>
     </g>
    </g>
    <g id="xtick_6">
     <g id="line2d_11">
      <path d="M 367.026074 177.225927 
L 367.026074 12.9 
" clip-path="url(#p64184d56db)" style="fill: none; stroke-dasharray: 1.1,2.86; stroke-dashoffset: 0; stroke: #c2c6cd; stroke-width: 1.1"/>
     </g>
     <g id="line2d_12">
      <g>
       <use xlink:href="#m9a346d5cc1" x="367.026074" y="177.225927" style="fill: #514f52; stroke: #514f52; stroke-width: 1.35"/>
      </g>
     </g>
     <g id="text_6">
      <text style="font-size: 14px; font-family: 'DejaVu Sans'; text-anchor: middle; fill: #514f52" x="367.026074" y="195.36374" transform="rotate(-0 367.026074 195.36374)">30</text>
     </g>
    </g>
    <g id="xtick_7">
     <g id="line2d_13">
      <path d="M 426.469199 177.225927 
L 426.469199 12.9 
" clip-path="url(#p64184d56db)" style="fill: none; stroke-dasharray: 1.1,2.86; stroke-dashoffset: 0; stroke: #c2c6cd; stroke-width: 1.1"/>
     </g>
     <g id="line2d_14">
      <g>
       <use xlink:href="#m9a346d5cc1" x="426.469199" y="177.225927" style="fill: #514f52; stroke: #514f52; stroke-width: 1.35"/>
      </g>
     </g>
     <g id="text_7">
      <text style="font-size: 14px; font-family: 'DejaVu Sans'; text-anchor: middle; fill: #514f52" x="426.469199" y="195.36374" transform="rotate(-0 426.469199 195.36374)">35</text>
     </g>
    </g>
    <g id="xtick_8">
     <g id="line2d_15">
      <path d="M 485.912325 177.225927 
L 485.912325 12.9 
" clip-path="url(#p64184d56db)" style="fill: none; stroke-dasharray: 1.1,2.86; stroke-dashoffset: 0; stroke: #c2c6cd; stroke-width: 1.1"/>
     </g>
     <g id="line2d_16">
      <g>
       <use xlink:href="#m9a346d5cc1" x="485.912325" y="177.225927" style="fill: #514f52; stroke: #514f52; stroke-width: 1.35"/>
      </g>
     </g>
     <g id="text_8">
      <text style="font-size: 14px; font-family: 'DejaVu Sans'; text-anchor: middle; fill: #514f52" x="485.912325" y="195.36374" transform="rotate(-0 485.912325 195.36374)">40</text>
     </g>
    </g>
    <g id="text_9">
     <text style="font-size: 15.5px; font-family: 'DejaVu Sans'; text-anchor: middle; fill: #514f52" x="301.638636" y="219.05288" transform="rotate(-0 301.638636 219.05288)">Number of heavy atoms in ligand</text>
    </g>
   </g>
   <g id="matplotlib.axis_2">
    <g id="ytick_1">
     <g id="line2d_17">
      <path d="M 62.677273 177.225927 
L 540.6 177.225927 
" clip-path="url(#p64184d56db)" style="fill: none; stroke-dasharray: 1.1,2.86; stroke-dashoffset: 0; stroke: #c2c6cd; stroke-width: 1.1"/>
     </g>
     <g id="line2d_18">
      <defs>
       <path id="m7f7720b2c6" d="M 0 0 
L -3.5 0 
" style="stroke: #514f52; stroke-width: 1.35"/>
      </defs>
      <g>
       <use xlink:href="#m7f7720b2c6" x="62.677273" y="177.225927" style="fill: #514f52; stroke: #514f52; stroke-width: 1.35"/>
      </g>
     </g>
     <g id="text_10">
      <text style="font-size: 14px; font-family: 'DejaVu Sans'; text-anchor: end; fill: #514f52" x="55.177273" y="182.544834" transform="rotate(-0 55.177273 182.544834)">0.0</text>
     </g>
    </g>
    <g id="ytick_2">
     <g id="line2d_19">
      <path d="M 62.677273 144.360742 
L 540.6 144.360742 
" clip-path="url(#p64184d56db)" style="fill: none; stroke-dasharray: 1.1,2.86; stroke-dashoffset: 0; stroke: #c2c6cd; stroke-width: 1.1"/>
     </g>
     <g id="line2d_20">
      <g>
       <use xlink:href="#m7f7720b2c6" x="62.677273" y="144.360742" style="fill: #514f52; stroke: #514f52; stroke-width: 1.35"/>
      </g>
     </g>
     <g id="text_11">
      <text style="font-size: 14px; font-family: 'DejaVu Sans'; text-anchor: end; fill: #514f52" x="55.177273" y="149.679648" transform="rotate(-0 55.177273 149.679648)">0.2</text>
     </g>
    </g>
    <g id="ytick_3">
     <g id="line2d_21">
      <path d="M 62.677273 111.495556 
L 540.6 111.495556 
" clip-path="url(#p64184d56db)" style="fill: none; stroke-dasharray: 1.1,2.86; stroke-dashoffset: 0; stroke: #c2c6cd; stroke-width: 1.1"/>
     </g>
     <g id="line2d_22">
      <g>
       <use xlink:href="#m7f7720b2c6" x="62.677273" y="111.495556" style="fill: #514f52; stroke: #514f52; stroke-width: 1.35"/>
      </g>
     </g>
     <g id="text_12">
      <text style="font-size: 14px; font-family: 'DejaVu Sans'; text-anchor: end; fill: #514f52" x="55.177273" y="116.814463" transform="rotate(-0 55.177273 116.814463)">0.4</text>
     </g>
    </g>
    <g id="ytick_4">
     <g id="line2d_23">
      <path d="M 62.677273 78.630371 
L 540.6 78.630371 
" clip-path="url(#p64184d56db)" style="fill: none; stroke-dasharray: 1.1,2.86; stroke-dashoffset: 0; stroke: #c2c6cd; stroke-width: 1.1"/>
     </g>
     <g id="line2d_24">
      <g>
       <use xlink:href="#m7f7720b2c6" x="62.677273" y="78.630371" style="fill: #514f52; stroke: #514f52; stroke-width: 1.35"/>
      </g>
     </g>
     <g id="text_13">
      <text style="font-size: 14px; font-family: 'DejaVu Sans'; text-anchor: end; fill: #514f52" x="55.177273" y="83.949277" transform="rotate(-0 55.177273 83.949277)">0.6</text>
     </g>
    </g>
    <g id="ytick_5">
     <g id="line2d_25">
      <path d="M 62.677273 45.765185 
L 540.6 45.765185 
" clip-path="url(#p64184d56db)" style="fill: none; stroke-dasharray: 1.1,2.86; stroke-dashoffset: 0; stroke: #c2c6cd; stroke-width: 1.1"/>
     </g>
     <g id="line2d_26">
      <g>
       <use xlink:href="#m7f7720b2c6" x="62.677273" y="45.765185" style="fill: #514f52; stroke: #514f52; stroke-width: 1.35"/>
      </g>
     </g>
     <g id="text_14">
      <text style="font-size: 14px; font-family: 'DejaVu Sans'; text-anchor: end; fill: #514f52" x="55.177273" y="51.084092" transform="rotate(-0 55.177273 51.084092)">0.8</text>
     </g>
    </g>
    <g id="ytick_6">
     <g id="line2d_27">
      <path d="M 62.677273 12.9 
L 540.6 12.9 
" clip-path="url(#p64184d56db)" style="fill: none; stroke-dasharray: 1.1,2.86; stroke-dashoffset: 0; stroke: #c2c6cd; stroke-width: 1.1"/>
     </g>
     <g id="line2d_28">
      <g>
       <use xlink:href="#m7f7720b2c6" x="62.677273" y="12.9" style="fill: #514f52; stroke: #514f52; stroke-width: 1.35"/>
      </g>
     </g>
     <g id="text_15">
      <text style="font-size: 14px; font-family: 'DejaVu Sans'; text-anchor: end; fill: #514f52" x="55.177273" y="18.218906" transform="rotate(-0 55.177273 18.218906)">1.0</text>
     </g>
    </g>
    <g id="text_16">
     <text style="font-size: 15.5px; font-family: 'DejaVu Sans'; text-anchor: middle; fill: #514f52" x="19.689382" y="95.062964" transform="rotate(-90 19.689382 95.062964)">SuCOS median</text>
    </g>
   </g>
   <g id="patch_3">
    <path d="M 62.677273 177.225927 
L 62.677273 12.9 
" style="fill: none; stroke: #514f52; stroke-width: 1.35; stroke-linejoin: miter; stroke-linecap: square"/>
   </g>
   <g id="patch_4">
    <path d="M 62.677273 177.225927 
L 540.6 177.225927 
" style="fill: none; stroke: #514f52; stroke-width: 1.35; stroke-linejoin: miter; stroke-linecap: square"/>
   </g>
   <g id="line2d_29">
    <path d="M 62.677273 111.495556 
L 540.6 111.495556 
" clip-path="url(#p64184d56db)" style="fill: none; stroke-dasharray: 1.2,3.12; stroke-dashoffset: 0; stroke: #514f52; stroke-width: 1.2"/>
   </g>
   <g id="line2d_30">
    <path d="M 69.810448 133.035695 
L 81.699073 131.168948 
L 93.587698 129.082408 
L 105.476323 122.396894 
L 117.364948 121.751565 
L 129.253573 120.051127 
L 141.142198 118.594615 
L 153.030823 117.100289 
L 164.919448 115.564899 
L 176.808073 114.792623 
L 188.696698 118.173544 
L 200.585323 114.384087 
L 212.473948 114.562302 
L 224.362573 116.964432 
L 236.251199 116.499584 
L 248.139824 115.442019 
L 260.028449 113.84405 
L 271.917074 116.121333 
L 283.805699 114.743693 
L 295.694324 119.322309 
L 307.582949 113.947257 
L 319.471574 115.024351 
L 331.360199 116.039413 
L 343.248824 114.330946 
L 355.137449 117.185103 
L 367.026074 114.59552 
L 378.914699 115.065595 
L 390.803324 113.171259 
L 402.691949 115.764844 
L 414.580574 114.132054 
L 426.469199 113.880354 
L 438.357825 115.332211 
L 450.24645 117.047682 
L 474.0237 116.712771 
L 485.912325 116.432265 
L 509.689575 114.578351 
L 521.5782 113.164311 
L 533.466825 112.323065 
" clip-path="url(#p64184d56db)" style="fill: none; stroke: #b58fdb; stroke-width: 2.35; stroke-linecap: round"/>
   </g>
   <g id="line2d_31">
    <path d="M 69.810448 118.315417 
L 81.699073 115.777508 
L 93.587698 111.007971 
L 105.476323 105.695267 
L 117.364948 114.041516 
L 129.253573 120.574128 
L 141.142198 120.033716 
L 153.030823 119.105198 
L 164.919448 118.864707 
L 176.808073 119.253272 
L 188.696698 122.394812 
L 200.585323 121.871368 
L 212.473948 124.48013 
L 224.362573 122.724189 
L 236.251199 123.916636 
L 248.139824 122.33865 
L 260.028449 121.161485 
L 271.917074 120.721549 
L 283.805699 122.888177 
L 295.694324 122.606405 
L 307.582949 123.532511 
L 319.471574 123.537291 
L 331.360199 125.016789 
L 343.248824 124.251067 
L 355.137449 124.926663 
L 367.026074 125.27465 
L 378.914699 125.840524 
L 390.803324 126.244854 
L 402.691949 123.580734 
L 414.580574 125.670893 
L 426.469199 126.19377 
L 438.357825 129.015079 
L 450.24645 127.057572 
L 474.0237 127.928149 
L 485.912325 130.223082 
L 509.689575 128.370982 
L 521.5782 130.31655 
L 533.466825 123.728024 
" clip-path="url(#p64184d56db)" style="fill: none; stroke: #f5b27e; stroke-width: 2.35; stroke-linecap: round"/>
   </g>
   <g id="line2d_32">
    <path d="M 69.810448 116.646133 
L 81.699073 117.288315 
L 93.587698 110.104826 
L 105.476323 110.483977 
L 117.364948 105.718388 
L 129.253573 111.283374 
L 141.142198 111.410936 
L 153.030823 116.334583 
L 164.919448 114.263683 
L 176.808073 115.629883 
L 188.696698 117.963238 
L 200.585323 117.084601 
L 212.473948 118.550262 
L 224.362573 117.181618 
L 236.251199 116.537113 
L 248.139824 117.688431 
L 260.028449 114.514783 
L 271.917074 115.328752 
L 283.805699 114.315602 
L 295.694324 117.818159 
L 307.582949 117.428641 
L 319.471574 119.376599 
L 331.360199 119.425901 
L 343.248824 122.992016 
L 355.137449 120.798838 
L 367.026074 120.228934 
L 378.914699 121.917763 
L 390.803324 121.719395 
L 402.691949 120.520922 
L 414.580574 119.651727 
L 426.469199 121.448777 
L 438.357825 121.68925 
L 450.24645 122.259867 
L 474.0237 123.710468 
L 485.912325 123.546103 
L 509.689575 128.184743 
L 521.5782 127.180263 
L 533.466825 122.722116 
" clip-path="url(#p64184d56db)" style="fill: none; stroke: #4363d8; stroke-width: 2.35; stroke-linecap: round"/>
   </g>
   <g id="legend_1">
    <g id="patch_5">
     <path d="M 65.322273 68.714531 
L 196.51571 68.714531 
L 196.51571 15.545 
L 65.322273 15.545 
z
" style="fill: #ffffff; stroke: #b6bbc3; stroke-width: 1.35; stroke-linejoin: miter"/>
    </g>
    <g id="line2d_33">
     <path d="M 71.762273 26.698203 
L 82.687273 26.698203 
L 93.612273 26.698203 
" style="fill: none; stroke: #b58fdb; stroke-width: 2.35; stroke-linecap: square"/>
    </g>
    <g id="text_17">
     <text style="font-size: 11.5px; font-family: 'DejaVu Sans'; text-anchor: start; fill: #514f52" x="99.937273" y="30.723203" transform="rotate(-0 99.937273 30.723203)">TargetDiff</text>
    </g>
    <g id="line2d_34">
     <path d="M 71.762273 41.278047 
L 82.687273 41.278047 
L 93.612273 41.278047 
" style="fill: none; stroke: #f5b27e; stroke-width: 2.35; stroke-linecap: square"/>
    </g>
    <g id="text_18">
     <text style="font-size: 11.5px; font-family: 'DejaVu Sans'; text-anchor: start; fill: #514f52" x="99.937273" y="45.303047" transform="rotate(-0 99.937273 45.303047)">VoxBind</text>
    </g>
    <g id="line2d_35">
     <path d="M 71.762273 55.857891 
L 82.687273 55.857891 
L 93.612273 55.857891 
" style="fill: none; stroke: #4363d8; stroke-width: 2.35; stroke-linecap: square"/>
    </g>
    <g id="text_19">
     <text style="font-size: 11.5px; font-family: 'DejaVu Sans'; text-anchor: start; fill: #514f52" x="99.937273" y="59.882891" transform="rotate(-0 99.937273 59.882891)">VoxBind + Ours</text>
    </g>
   </g>
  </g>
 </g>
 <defs>
  <clipPath id="p64184d56db">
   <rect x="62.677273" y="12.9" width="477.922727" height="164.325927"/>
  </clipPath>
 </defs>
</svg>
