<?xml version="1.0" encoding="utf-8" standalone="no"?>
<!DOCTYPE svg PUBLIC "-//W3C//DTD SVG 1.1//EN"
  "http://www.w3.org/Graphics/SVG/1.1/DTD/svg11.dtd">
<svg xmlns:xlink="http://www.w3.org/1999/xlink" width="548.1pt" height="346.9932pt" viewBox="0 0 548.1 346.9932" xmlns="http://www.w3.org/2000/svg" version="1.1">
 <metadata>
  <rdf:RDF xmlns:dc="http://purl.org/dc/elements/1.1/" xmlns:cc="http://creativecommons.org/ns#" xmlns:rdf="http://www.w3.org/1999/02/22-rdf-syntax-ns#">
   <cc:Work>
    <dc:type rdf:resource="http://purl.org/dc/dcmitype/StillImage"/>
    <dc:date>2026-09-10T17:41:55.565492</dc:date>
    <dc:format>image/svg+xml</dc:format>
    <dc:creator>
     <cc:Agent>
      <dc:title>Matplotlib v3.10.9, https://matplotlib.org/</dc:title>
     </cc:Agent>
    </dc:creator>
   </cc:Work>
  </rdf:RDF>
 </metadata>
 <defs>
  <style type="text/css">*{stroke-linejoin: round; stroke-linecap: butt}</style>
 </defs>
 <g id="figure_1">
  <g id="patch_1">
   <path d="M 0 346.9932 
L 548.1 346.9932 
L 548.1 0 
L 0 0 
z
" style="fill: #ffffff"/>
  </g>
  <g id="axes_1">
   <g id="patch_2">
    <path d="M 86.363636 207.596264 
L 540.6 207.596264 
L 540.6 7.5 
L 86.363636 7.5 
z
" style="fill: #ffffff"/>
   </g>
   <g id="matplotlib.axis_1">
    <g id="xtick_1">
     <g id="line2d_1">
      <path d="M 93.143284 207.596264 
L 93.143284 7.5 
" clip-path="url(#p3f11823a27)" style="fill: none; stroke-dasharray: 1.1,2.86; stroke-dashoffset: 0; stroke: #c2c6cd; stroke-width: 1.1"/>
     </g>
     <g id="line2d_2">
      <defs>
       <path id="m837b9fa1e6" d="M 0 0 
L 0 3.5 
" style="stroke: #514f52; stroke-width: 1.35"/>
      </defs>
      <g>
       <use xlink:href="#m837b9fa1e6" x="93.143284" y="207.596264" style="fill: #514f52; stroke: #514f52; stroke-width: 1.35"/>
      </g>
     </g>
    </g>
    <g id="xtick_2">
     <g id="line2d_3">
      <path d="M 149.640344 207.596264 
L 149.640344 7.5 
" clip-path="url(#p3f11823a27)" style="fill: none; stroke-dasharray: 1.1,2.86; stroke-dashoffset: 0; stroke: #c2c6cd; stroke-width: 1.1"/>
     </g>
     <g id="line2d_4">
      <g>
       <use xlink:href="#m837b9fa1e6" x="149.640344" y="207.596264" style="fill: #514f52; stroke: #514f52; stroke-width: 1.35"/>
      </g>
     </g>
    </g>
    <g id="xtick_3">
     <g id="line2d_5">
      <path d="M 206.137404 207.596264 
L 206.137404 7.5 
" clip-path="url(#p3f11823a27)" style="fill: none; stroke-dasharray: 1.1,2.86; stroke-dashoffset: 0; stroke: #c2c6cd; stroke-width: 1.1"/>
     </g>
     <g id="line2d_6">
      <g>
       <use xlink:href="#m837b9fa1e6" x="206.137404" y="207.596264" style="fill: #514f52; stroke: #514f52; stroke-width: 1.35"/>
      </g>
     </g>
    </g>
    <g id="xtick_4">
     <g id="line2d_7">
      <path d="M 262.634464 207.596264 
L 262.634464 7.5 
" clip-path="url(#p3f11823a27)" style="fill: none; stroke-dasharray: 1.1,2.86; stroke-dashoffset: 0; stroke: #c2c6cd; stroke-width: 1.1"/>
     </g>
     <g id="line2d_8">
      <g>
       <use xlink:href="#m837b9fa1e6" x="262.634464" y="207.596264" style="fill: #514f52; stroke: #514f52; stroke-width: 1.35"/>
      </g>
     </g>
    </g>
    <g id="xtick_5">
     <g id="line2d_9">
      <path d="M 319.131524 207.596264 
L 319.131524 7.5 
" clip-path="url(#p3f11823a27)" style="fill: none; stroke-dasharray: 1.1,2.86; stroke-dashoffset: 0; stroke: #c2c6cd; stroke-width: 1.1"/>
     </g>
     <g id="line2d_10">
      <g>
       <use xlink:href="#m837b9fa1e6" x="319.131524" y="207.596264" style="fill: #514f52; stroke: #514f52; stroke-width: 1.35"/>
      </g>
     </g>
    </g>
    <g id="xtick_6">
     <g id="line2d_11">
      <path d="M 375.628584 207.596264 
L 375.628584 7.5 
" clip-path="url(#p3f11823a27)" style="fill: none; stroke-dasharray: 1.1,2.86; stroke-dashoffset: 0; stroke: #c2c6cd; stroke-width: 1.1"/>
     </g>
     <g id="line2d_12">
      <g>
       <use xlink:href="#m837b9fa1e6" x="375.628584" y="207.596264" style="fill: #514f52; stroke: #514f52; stroke-width: 1.35"/>
      </g>
     </g>
    </g>
    <g id="xtick_7">
     <g id="line2d_13">
      <path d="M 432.125645 207.596264 
L 432.125645 7.5 
" clip-path="url(#p3f11823a27)" style="fill: none; stroke-dasharray: 1.1,2.86; stroke-dashoffset: 0; stroke: #c2c6cd; stroke-width: 1.1"/>
     </g>
     <g id="line2d_14">
      <g>
       <use xlink:href="#m837b9fa1e6" x="432.125645" y="207.596264" style="fill: #514f52; stroke: #514f52; stroke-width: 1.35"/>
      </g>
     </g>
    </g>
    <g id="xtick_8">
     <g id="line2d_15">
      <path d="M 488.622705 207.596264 
L 488.622705 7.5 
" clip-path="url(#p3f11823a27)" style="fill: none; stroke-dasharray: 1.1,2.86; stroke-dashoffset: 0; stroke: #c2c6cd; stroke-width: 1.1"/>
     </g>
     <g id="line2d_16">
      <g>
       <use xlink:href="#m837b9fa1e6" x="488.622705" y="207.596264" style="fill: #514f52; stroke: #514f52; stroke-width: 1.35"/>
      </g>
     </g>
    </g>
   </g>
   <g id="matplotlib.axis_2">
    <g id="ytick_1">
     <g id="line2d_17">
      <path d="M 86.363636 168.692862 
L 540.6 168.692862 
" clip-path="url(#p3f11823a27)" style="fill: none; stroke-dasharray: 1.1,2.86; stroke-dashoffset: 0; stroke: #c2c6cd; stroke-width: 1.1"/>
     </g>
     <g id="line2d_18">
      <defs>
       <path id="mf82521ecf6" d="M 0 0 
L -3.5 0 
" style="stroke: #514f52; stroke-width: 1.35"/>
      </defs>
      <g>
       <use xlink:href="#mf82521ecf6" x="86.363636" y="168.692862" style="fill: #514f52; stroke: #514f52; stroke-width: 1.35"/>
      </g>
     </g>
     <g id="text_1">
      <text style="font-size: 14px; font-family: 'DejaVu Sans'; text-anchor: end; fill: #514f52" x="78.863636" y="174.011769" transform="rotate(-0 78.863636 174.011769)">−10</text>
     </g>
    </g>
    <g id="ytick_2">
     <g id="line2d_19">
      <path d="M 86.363636 125.746608 
L 540.6 125.746608 
" clip-path="url(#p3f11823a27)" style="fill: none; stroke-dasharray: 1.1,2.86; stroke-dashoffset: 0; stroke: #c2c6cd; stroke-width: 1.1"/>
     </g>
     <g id="line2d_20">
      <g>
       <use xlink:href="#mf82521ecf6" x="86.363636" y="125.746608" style="fill: #514f52; stroke: #514f52; stroke-width: 1.35"/>
      </g>
     </g>
     <g id="text_2">
      <text style="font-size: 14px; font-family: 'DejaVu Sans'; text-anchor: end; fill: #514f52" x="78.863636" y="131.065514" transform="rotate(-0 78.863636 131.065514)">−8</text>
     </g>
    </g>
    <g id="ytick_3">
     <g id="line2d_21">
      <path d="M 86.363636 82.800353 
L 540.6 82.800353 
" clip-path="url(#p3f11823a27)" style="fill: none; stroke-dasharray: 1.1,2.86; stroke-dashoffset: 0; stroke: #c2c6cd; stroke-width: 1.1"/>
     </g>
     <g id="line2d_22">
      <g>
       <use xlink:href="#mf82521ecf6" x="86.363636" y="82.800353" style="fill: #514f52; stroke: #514f52; stroke-width: 1.35"/>
      </g>
     </g>
     <g id="text_3">
      <text style="font-size: 14px; font-family: 'DejaVu Sans'; text-anchor: end; fill: #514f52" x="78.863636" y="88.119259" transform="rotate(-0 78.863636 88.119259)">−6</text>
     </g>
    </g>
    <g id="ytick_4">
     <g id="line2d_23">
      <path d="M 86.363636 39.854098 
L 540.6 39.854098 
" clip-path="url(#p3f11823a27)" style="fill: none; stroke-dasharray: 1.1,2.86; stroke-dashoffset: 0; stroke: #c2c6cd; stroke-width: 1.1"/>
     </g>
     <g id="line2d_24">
      <g>
       <use xlink:href="#mf82521ecf6" x="86.363636" y="39.854098" style="fill: #514f52; stroke: #514f52; stroke-width: 1.35"/>
      </g>
     </g>
     <g id="text_4">
      <text style="font-size: 14px; font-family: 'DejaVu Sans'; text-anchor: end; fill: #514f52" x="78.863636" y="45.173004" transform="rotate(-0 78.863636 45.173004)">−4</text>
     </g>
    </g>
    <g id="text_5">
     <text style="font-size: 15.5px; font-family: 'DejaVu Sans'; fill: #514f52" transform="translate(18.736949 146.410749) rotate(-90)">Vina Dock</text>
     <text style="font-size: 15.5px; font-family: 'DejaVu Sans'; fill: #514f52" transform="translate(36.093558 136.599734) rotate(-90)">median</text>
    </g>
   </g>
   <g id="line2d_25">
    <path d="M 115.742108 47.176434 
L 127.04152 49.796156 
L 138.340932 52.630609 
L 149.640344 52.716501 
L 160.939756 71.301493 
L 172.239168 71.301493 
L 183.53858 74.125209 
L 194.837992 76.691248 
L 206.137404 78.494991 
L 217.436816 83.637805 
L 228.736228 92.076744 
L 240.03564 99.646021 
L 251.335052 105.658497 
L 262.634464 111.359612 
L 273.933876 116.706421 
L 285.233288 119.497927 
L 296.5327 121.516401 
L 307.832112 121.516401 
L 319.131524 135.388042 
L 330.430936 128.130125 
L 341.730348 136.204021 
L 353.02976 136.204021 
L 364.329172 137.846715 
L 375.628584 144.342336 
L 386.927996 139.489409 
L 398.227408 149.195263 
L 409.52682 155.486889 
L 420.826232 146.940584 
L 432.125645 146.940584 
L 443.425057 146.414493 
" clip-path="url(#p3f11823a27)" style="fill: none; stroke-dasharray: 6,3.9; stroke-dashoffset: 0; stroke: #9aa0a6; stroke-width: 1.5; stroke-linecap: round"/>
   </g>
   <g id="patch_3">
    <path d="M 86.363636 207.596264 
L 86.363636 7.5 
" style="fill: none; stroke: #514f52; stroke-width: 1.35; stroke-linejoin: miter; stroke-linecap: square"/>
   </g>
   <g id="patch_4">
    <path d="M 86.363636 207.596264 
L 540.6 207.596264 
" style="fill: none; stroke: #514f52; stroke-width: 1.35; stroke-linejoin: miter; stroke-linecap: square"/>
   </g>
   <g id="line2d_26">
    <path d="M 93.143284 21.354999 
L 104.442696 26.283081 
L 115.742108 34.968961 
L 127.04152 43.50453 
L 138.340932 51.771684 
L 149.640344 60.53272 
L 160.939756 67.253808 
L 172.239168 72.557671 
L 183.53858 81.619331 
L 194.837992 85.205343 
L 206.137404 90.315947 
L 217.436816 98.765623 
L 228.736228 102.641522 
L 240.03564 103.983593 
L 251.335052 109.14788 
L 262.634464 111.874967 
L 273.933876 116.964098 
L 285.233288 121.473455 
L 296.5327 126.133124 
L 307.832112 128.140861 
L 319.131524 131.232992 
L 330.430936 140.262442 
L 341.730348 141.872926 
L 353.02976 143.590776 
L 364.329172 146.843955 
L 375.628584 154.531335 
L 386.927996 156.206239 
L 398.227408 150.934586 
L 409.52682 156.012981 
L 420.826232 163.335317 
L 432.125645 157.14032 
L 443.425057 173.567262 
L 454.724469 176.552027 
M 477.323293 186.97723 
L 488.622705 171.924568 
M 511.221529 173.717574 
L 522.520941 191.475851 
L 533.820353 176.552027 
" clip-path="url(#p3f11823a27)" style="fill: none; stroke-dasharray: 11.4,3.8; stroke-dashoffset: 0; stroke: #b58fdb; stroke-width: 1.9; stroke-linecap: round"/>
   </g>
   <g id="line2d_27">
    <path d="M 93.143284 24.092822 
L 104.442696 31.694309 
L 115.742108 38.179194 
L 127.04152 44.825127 
L 138.340932 53.822367 
L 149.640344 60.135467 
L 160.939756 68.456304 
L 172.239168 74.114473 
L 183.53858 81.748169 
L 194.837992 86.837301 
L 206.137404 94.073745 
L 217.436816 102.104694 
L 228.736228 111.262983 
L 240.03564 115.138883 
L 251.335052 122.525638 
L 262.634464 121.623767 
L 273.933876 123.577822 
L 285.233288 130.073443 
L 296.5327 133.326622 
L 307.832112 137.835978 
L 319.131524 144.943583 
L 330.430936 149.968295 
L 341.730348 149.785774 
L 353.02976 154.32734 
L 364.329172 157.0759 
L 375.628584 161.499365 
L 386.927996 161.273897 
L 398.227408 161.177268 
L 409.52682 168.027195 
L 420.826232 162.036193 
L 432.125645 168.853911 
L 443.425057 164.978011 
L 454.724469 163.410473 
L 466.023881 164.247925 
L 477.323293 170.625444 
L 488.622705 141.744087 
L 499.922117 164.849173 
L 511.221529 168.596233 
L 522.520941 151.063425 
L 533.820353 163.023957 
" clip-path="url(#p3f11823a27)" style="fill: none; stroke: #f5b27e; stroke-width: 2.82; stroke-linecap: round"/>
   </g>
   <g id="line2d_28">
    <path d="M 93.143284 20.549756 
L 104.442696 27.7862 
L 115.742108 35.688311 
L 127.04152 43.901782 
L 138.340932 55.003389 
L 149.640344 64.902501 
L 160.939756 76.927452 
L 172.239168 84.625569 
L 183.53858 88.96314 
L 194.837992 92.055271 
L 206.137404 95.426552 
L 217.436816 100.751887 
L 228.736228 108.632525 
L 240.03564 112.884204 
L 251.335052 115.589818 
L 262.634464 126.111651 
L 273.933876 126.938366 
L 285.233288 131.08268 
L 296.5327 137.342096 
L 307.832112 141.744087 
L 319.131524 147.831719 
L 330.430936 148.873166 
L 341.730348 153.339576 
L 353.02976 155.529835 
L 364.329172 163.635941 
L 375.628584 168.746545 
L 386.927996 170.603971 
L 398.227408 167.533314 
L 409.52682 176.29435 
L 420.826232 178.677867 
L 432.125645 180.674867 
L 443.425057 175.478371 
L 454.724469 184.63666 
L 466.023881 187.438903 
L 477.323293 185.334536 
L 488.622705 187.578478 
L 499.922117 181.039911 
L 511.221529 194.546508 
L 522.520941 192.91455 
L 533.820353 192.94676 
" clip-path="url(#p3f11823a27)" style="fill: none; stroke: #8291e8; stroke-width: 2.82; stroke-linecap: round"/>
   </g>
   <g id="legend_1">
    <g id="patch_5">
     <path d="M 387.7875 84.015625 
L 537.725 84.015625 
L 537.725 10.375 
L 387.7875 10.375 
z
" style="fill: #ffffff; stroke: #b6bbc3; stroke-width: 1.35; stroke-linejoin: miter"/>
    </g>
    <g id="line2d_29">
     <path d="M 394.7875 22.498047 
L 406.6625 22.498047 
L 418.5375 22.498047 
" style="fill: none; stroke-dasharray: 6,3.9; stroke-dashoffset: 0; stroke: #9aa0a6; stroke-width: 1.5"/>
    </g>
    <g id="text_6">
     <text style="font-size: 12.5px; font-family: 'DejaVu Sans'; text-anchor: start; fill: #514f52" x="425.4125" y="26.873047" transform="rotate(-0 425.4125 26.873047)">Reference ligand</text>
    </g>
    <g id="line2d_30">
     <path d="M 394.7875 38.345703 
L 406.6625 38.345703 
L 418.5375 38.345703 
" style="fill: none; stroke-dasharray: 11.4,3.8; stroke-dashoffset: 0; stroke: #b58fdb; stroke-width: 1.9"/>
    </g>
    <g id="text_7">
     <text style="font-size: 12.5px; font-family: 'DejaVu Sans'; text-anchor: start; fill: #514f52" x="425.4125" y="42.720703" transform="rotate(-0 425.4125 42.720703)">TargetDiff</text>
    </g>
    <g id="line2d_31">
     <path d="M 394.7875 54.193359 
L 406.6625 54.193359 
L 418.5375 54.193359 
" style="fill: none; stroke: #f5b27e; stroke-width: 2.82; stroke-linecap: square"/>
    </g>
    <g id="text_8">
     <!-- VoxBind$_{\sigma=0.9}$ -->
     <g style="fill: #514f52" transform="translate(425.4125 58.568359)">
      <text>
       <tspan x="0" y="-0.125" style="font-size: 12.5px; font-family: 'DejaVu Sans'; fill: #514f52">V</tspan>
       <tspan x="8.551025" y="-0.125" style="font-size: 12.5px; font-family: 'DejaVu Sans'; fill: #514f52">o</tspan>
       <tspan x="16.19873" y="-0.125" style="font-size: 12.5px; font-family: 'DejaVu Sans'; fill: #514f52">x</tspan>
       <tspan x="23.596191" y="-0.125" style="font-size: 12.5px; font-family: 'DejaVu Sans'; fill: #514f52">B</tspan>
       <tspan x="32.171631" y="-0.125" style="font-size: 12.5px; font-family: 'DejaVu Sans'; fill: #514f52">i</tspan>
       <tspan x="35.644531" y="-0.125" style="font-size: 12.5px; font-family: 'DejaVu Sans'; fill: #514f52">n</tspan>
       <tspan x="43.566895" y="-0.125" style="font-size: 12.5px; font-family: 'DejaVu Sans'; fill: #514f52">d</tspan>
       <tspan x="51.625879" y="2.007812" style="font-style: oblique; font-size: 8.75px; font-family: 'DejaVu Sans'; fill: #514f52">σ</tspan>
       <tspan x="58.876245" y="2.007812" style="font-size: 8.75px; font-family: 'DejaVu Sans'; fill: #514f52">=</tspan>
       <tspan x="67.9125" y="2.007812" style="font-size: 8.75px; font-family: 'DejaVu Sans'; fill: #514f52">0</tspan>
       <tspan x="73.479517" y="2.007812" style="font-size: 8.75px; font-family: 'DejaVu Sans'; fill: #514f52">.</tspan>
       <tspan x="76.260889" y="2.007812" style="font-size: 8.75px; font-family: 'DejaVu Sans'; fill: #514f52">9</tspan>
      </text>
     </g>
    </g>
    <g id="line2d_32">
     <path d="M 394.7875 70.041016 
L 406.6625 70.041016 
L 418.5375 70.041016 
" style="fill: none; stroke: #8291e8; stroke-width: 2.82; stroke-linecap: square"/>
    </g>
    <g id="text_9">
     <text style="font-size: 12.5px; font-family: 'DejaVu Sans'; text-anchor: start; fill: #514f52" x="425.4125" y="74.416016" transform="rotate(-0 425.4125 74.416016)">CoDE</text>
    </g>
   </g>
  </g>
  <g id="axes_2">
   <g id="patch_6">
    <path d="M 86.363636 294.520473 
L 540.6 294.520473 
L 540.6 214.329222 
L 86.363636 214.329222 
z
" style="fill: #ffffff"/>
   </g>
   <g id="matplotlib.axis_3">
    <g id="xtick_9">
     <g id="line2d_33">
      <path d="M 93.143284 294.520473 
L 93.143284 214.329222 
" clip-path="url(#p713a1d5b81)" style="fill: none; stroke-dasharray: 1.1,2.86; stroke-dashoffset: 0; stroke: #c2c6cd; stroke-width: 1.1"/>
     </g>
     <g id="line2d_34">
      <g>
       <use xlink:href="#m837b9fa1e6" x="93.143284" y="294.520473" style="fill: #514f52; stroke: #514f52; stroke-width: 1.35"/>
      </g>
     </g>
     <g id="text_10">
      <text style="font-size: 14px; font-family: 'DejaVu Sans'; text-anchor: middle; fill: #514f52" x="93.143284" y="312.658285" transform="rotate(-0 93.143284 312.658285)">5</text>
     </g>
    </g>
    <g id="xtick_10">
     <g id="line2d_35">
      <path d="M 149.640344 294.520473 
L 149.640344 214.329222 
" clip-path="url(#p713a1d5b81)" style="fill: none; stroke-dasharray: 1.1,2.86; stroke-dashoffset: 0; stroke: #c2c6cd; stroke-width: 1.1"/>
     </g>
     <g id="line2d_36">
      <g>
       <use xlink:href="#m837b9fa1e6" x="149.640344" y="294.520473" style="fill: #514f52; stroke: #514f52; stroke-width: 1.35"/>
      </g>
     </g>
     <g id="text_11">
      <text style="font-size: 14px; font-family: 'DejaVu Sans'; text-anchor: middle; fill: #514f52" x="149.640344" y="312.658285" transform="rotate(-0 149.640344 312.658285)">10</text>
     </g>
    </g>
    <g id="xtick_11">
     <g id="line2d_37">
      <path d="M 206.137404 294.520473 
L 206.137404 214.329222 
" clip-path="url(#p713a1d5b81)" style="fill: none; stroke-dasharray: 1.1,2.86; stroke-dashoffset: 0; stroke: #c2c6cd; stroke-width: 1.1"/>
     </g>
     <g id="line2d_38">
      <g>
       <use xlink:href="#m837b9fa1e6" x="206.137404" y="294.520473" style="fill: #514f52; stroke: #514f52; stroke-width: 1.35"/>
      </g>
     </g>
     <g id="text_12">
      <text style="font-size: 14px; font-family: 'DejaVu Sans'; text-anchor: middle; fill: #514f52" x="206.137404" y="312.658285" transform="rotate(-0 206.137404 312.658285)">15</text>
     </g>
    </g>
    <g id="xtick_12">
     <g id="line2d_39">
      <path d="M 262.634464 294.520473 
L 262.634464 214.329222 
" clip-path="url(#p713a1d5b81)" style="fill: none; stroke-dasharray: 1.1,2.86; stroke-dashoffset: 0; stroke: #c2c6cd; stroke-width: 1.1"/>
     </g>
     <g id="line2d_40">
      <g>
       <use xlink:href="#m837b9fa1e6" x="262.634464" y="294.520473" style="fill: #514f52; stroke: #514f52; stroke-width: 1.35"/>
      </g>
     </g>
     <g id="text_13">
      <text style="font-size: 14px; font-family: 'DejaVu Sans'; text-anchor: middle; fill: #514f52" x="262.634464" y="312.658285" transform="rotate(-0 262.634464 312.658285)">20</text>
     </g>
    </g>
    <g id="xtick_13">
     <g id="line2d_41">
      <path d="M 319.131524 294.520473 
L 319.131524 214.329222 
" clip-path="url(#p713a1d5b81)" style="fill: none; stroke-dasharray: 1.1,2.86; stroke-dashoffset: 0; stroke: #c2c6cd; stroke-width: 1.1"/>
     </g>
     <g id="line2d_42">
      <g>
       <use xlink:href="#m837b9fa1e6" x="319.131524" y="294.520473" style="fill: #514f52; stroke: #514f52; stroke-width: 1.35"/>
      </g>
     </g>
     <g id="text_14">
      <text style="font-size: 14px; font-family: 'DejaVu Sans'; text-anchor: middle; fill: #514f52" x="319.131524" y="312.658285" transform="rotate(-0 319.131524 312.658285)">25</text>
     </g>
    </g>
    <g id="xtick_14">
     <g id="line2d_43">
      <path d="M 375.628584 294.520473 
L 375.628584 214.329222 
" clip-path="url(#p713a1d5b81)" style="fill: none; stroke-dasharray: 1.1,2.86; stroke-dashoffset: 0; stroke: #c2c6cd; stroke-width: 1.1"/>
     </g>
     <g id="line2d_44">
      <g>
       <use xlink:href="#m837b9fa1e6" x="375.628584" y="294.520473" style="fill: #514f52; stroke: #514f52; stroke-width: 1.35"/>
      </g>
     </g>
     <g id="text_15">
      <text style="font-size: 14px; font-family: 'DejaVu Sans'; text-anchor: middle; fill: #514f52" x="375.628584" y="312.658285" transform="rotate(-0 375.628584 312.658285)">30</text>
     </g>
    </g>
    <g id="xtick_15">
     <g id="line2d_45">
      <path d="M 432.125645 294.520473 
L 432.125645 214.329222 
" clip-path="url(#p713a1d5b81)" style="fill: none; stroke-dasharray: 1.1,2.86; stroke-dashoffset: 0; stroke: #c2c6cd; stroke-width: 1.1"/>
     </g>
     <g id="line2d_46">
      <g>
       <use xlink:href="#m837b9fa1e6" x="432.125645" y="294.520473" style="fill: #514f52; stroke: #514f52; stroke-width: 1.35"/>
      </g>
     </g>
     <g id="text_16">
      <text style="font-size: 14px; font-family: 'DejaVu Sans'; text-anchor: middle; fill: #514f52" x="432.125645" y="312.658285" transform="rotate(-0 432.125645 312.658285)">35</text>
     </g>
    </g>
    <g id="xtick_16">
     <g id="line2d_47">
      <path d="M 488.622705 294.520473 
L 488.622705 214.329222 
" clip-path="url(#p713a1d5b81)" style="fill: none; stroke-dasharray: 1.1,2.86; stroke-dashoffset: 0; stroke: #c2c6cd; stroke-width: 1.1"/>
     </g>
     <g id="line2d_48">
      <g>
       <use xlink:href="#m837b9fa1e6" x="488.622705" y="294.520473" style="fill: #514f52; stroke: #514f52; stroke-width: 1.35"/>
      </g>
     </g>
     <g id="text_17">
      <text style="font-size: 14px; font-family: 'DejaVu Sans'; text-anchor: middle; fill: #514f52" x="488.622705" y="312.658285" transform="rotate(-0 488.622705 312.658285)">40</text>
     </g>
    </g>
    <g id="text_18">
     <text style="font-size: 15.5px; font-family: 'DejaVu Sans'; text-anchor: middle; fill: #514f52" x="313.481818" y="336.347426" transform="rotate(-0 313.481818 336.347426)">Number of heavy atoms in ligand</text>
    </g>
   </g>
   <g id="matplotlib.axis_4">
    <g id="ytick_5">
     <g id="line2d_49">
      <path d="M 86.363636 294.520473 
L 540.6 294.520473 
" clip-path="url(#p713a1d5b81)" style="fill: none; stroke-dasharray: 1.1,2.86; stroke-dashoffset: 0; stroke: #c2c6cd; stroke-width: 1.1"/>
     </g>
     <g id="line2d_50">
      <g>
       <use xlink:href="#mf82521ecf6" x="86.363636" y="294.520473" style="fill: #514f52; stroke: #514f52; stroke-width: 1.35"/>
      </g>
     </g>
     <g id="text_19">
      <text style="font-size: 14px; font-family: 'DejaVu Sans'; text-anchor: end; fill: #514f52" x="78.863636" y="299.839379" transform="rotate(-0 78.863636 299.839379)">0%</text>
     </g>
    </g>
    <g id="ytick_6">
     <g id="line2d_51">
      <path d="M 86.363636 269.777548 
L 540.6 269.777548 
" clip-path="url(#p713a1d5b81)" style="fill: none; stroke-dasharray: 1.1,2.86; stroke-dashoffset: 0; stroke: #c2c6cd; stroke-width: 1.1"/>
     </g>
     <g id="line2d_52">
      <g>
       <use xlink:href="#mf82521ecf6" x="86.363636" y="269.777548" style="fill: #514f52; stroke: #514f52; stroke-width: 1.35"/>
      </g>
     </g>
     <g id="text_20">
      <text style="font-size: 14px; font-family: 'DejaVu Sans'; text-anchor: end; fill: #514f52" x="78.863636" y="275.096455" transform="rotate(-0 78.863636 275.096455)">2%</text>
     </g>
    </g>
    <g id="ytick_7">
     <g id="line2d_53">
      <path d="M 86.363636 245.034624 
L 540.6 245.034624 
" clip-path="url(#p713a1d5b81)" style="fill: none; stroke-dasharray: 1.1,2.86; stroke-dashoffset: 0; stroke: #c2c6cd; stroke-width: 1.1"/>
     </g>
     <g id="line2d_54">
      <g>
       <use xlink:href="#mf82521ecf6" x="86.363636" y="245.034624" style="fill: #514f52; stroke: #514f52; stroke-width: 1.35"/>
      </g>
     </g>
     <g id="text_21">
      <text style="font-size: 14px; font-family: 'DejaVu Sans'; text-anchor: end; fill: #514f52" x="78.863636" y="250.35353" transform="rotate(-0 78.863636 250.35353)">4%</text>
     </g>
    </g>
    <g id="ytick_8">
     <g id="line2d_55">
      <path d="M 86.363636 220.2917 
L 540.6 220.2917 
" clip-path="url(#p713a1d5b81)" style="fill: none; stroke-dasharray: 1.1,2.86; stroke-dashoffset: 0; stroke: #c2c6cd; stroke-width: 1.1"/>
     </g>
     <g id="line2d_56">
      <g>
       <use xlink:href="#mf82521ecf6" x="86.363636" y="220.2917" style="fill: #514f52; stroke: #514f52; stroke-width: 1.35"/>
      </g>
     </g>
     <g id="text_22">
      <text style="font-size: 14px; font-family: 'DejaVu Sans'; text-anchor: end; fill: #514f52" x="78.863636" y="225.610606" transform="rotate(-0 78.863636 225.610606)">6%</text>
     </g>
    </g>
    <g id="text_23">
     <text style="font-size: 15.5px; font-family: 'DejaVu Sans'; fill: #514f52" transform="translate(18.736949 295.541019) rotate(-90)">Generated</text>
     <text style="font-size: 15.5px; font-family: 'DejaVu Sans'; fill: #514f52" transform="translate(36.093558 284.194535) rotate(-90)">fraction</text>
    </g>
   </g>
   <g id="FillBetweenPolyCollection_1">
    <defs>
     <path id="m8546237ba5" d="M 93.143284 -52.472727 
L 93.143284 -77.528853 
L 104.442696 -75.962845 
L 115.742108 -81.555731 
L 127.04152 -81.835375 
L 138.340932 -85.532893 
L 149.640344 -87.272902 
L 160.939756 -87.272902 
L 172.239168 -94.232937 
L 183.53858 -94.232937 
L 194.837992 -94.232937 
L 206.137404 -94.232937 
L 217.436816 -92.492928 
L 228.736228 -95.972946 
L 240.03564 -90.75292 
L 251.335052 -94.232937 
L 262.634464 -87.272902 
L 273.933876 -83.792885 
L 285.233288 -85.532893 
L 296.5327 -92.492928 
L 307.832112 -92.492928 
L 319.131524 -92.492928 
L 330.430936 -85.532893 
L 341.730348 -89.012911 
L 353.02976 -89.012911 
L 364.329172 -94.232937 
L 375.628584 -90.75292 
L 386.927996 -89.012911 
L 398.227408 -78.572858 
L 409.52682 -82.052876 
L 420.826232 -78.572858 
L 432.125645 -78.572858 
L 443.425057 -73.352832 
L 454.724469 -68.132806 
L 466.023881 -66.392797 
L 477.323293 -66.392797 
L 488.622705 -62.91278 
L 499.922117 -64.217786 
L 511.221529 -59.18419 
L 522.520941 -57.692754 
L 533.820353 -58.736759 
L 533.820353 -52.472727 
L 533.820353 -52.472727 
L 522.520941 -52.472727 
L 511.221529 -52.472727 
L 499.922117 -52.472727 
L 488.622705 -52.472727 
L 477.323293 -52.472727 
L 466.023881 -52.472727 
L 454.724469 -52.472727 
L 443.425057 -52.472727 
L 432.125645 -52.472727 
L 420.826232 -52.472727 
L 409.52682 -52.472727 
L 398.227408 -52.472727 
L 386.927996 -52.472727 
L 375.628584 -52.472727 
L 364.329172 -52.472727 
L 353.02976 -52.472727 
L 341.730348 -52.472727 
L 330.430936 -52.472727 
L 319.131524 -52.472727 
L 307.832112 -52.472727 
L 296.5327 -52.472727 
L 285.233288 -52.472727 
L 273.933876 -52.472727 
L 262.634464 -52.472727 
L 251.335052 -52.472727 
L 240.03564 -52.472727 
L 228.736228 -52.472727 
L 217.436816 -52.472727 
L 206.137404 -52.472727 
L 194.837992 -52.472727 
L 183.53858 -52.472727 
L 172.239168 -52.472727 
L 160.939756 -52.472727 
L 149.640344 -52.472727 
L 138.340932 -52.472727 
L 127.04152 -52.472727 
L 115.742108 -52.472727 
L 104.442696 -52.472727 
L 93.143284 -52.472727 
z
"/>
    </defs>
    <g clip-path="url(#p713a1d5b81)">
     <use xlink:href="#m8546237ba5" x="0" y="346.9932" style="fill: #9aa0a6; fill-opacity: 0.16"/>
    </g>
   </g>
   <g id="patch_7">
    <path d="M 86.363636 294.520473 
L 86.363636 214.329222 
" style="fill: none; stroke: #514f52; stroke-width: 1.35; stroke-linejoin: miter; stroke-linecap: square"/>
   </g>
   <g id="patch_8">
    <path d="M 86.363636 294.520473 
L 540.6 294.520473 
" style="fill: none; stroke: #514f52; stroke-width: 1.35; stroke-linejoin: miter; stroke-linecap: square"/>
   </g>
   <g id="FillBetweenPolyCollection_2">
    <defs>
     <path id="m0a769a3689" d="M 93.143284 -52.472727 
L 93.143284 -57.492212 
L 98.79299 -57.492212 
L 98.79299 -59.374519 
L 110.092402 -59.374519 
L 110.092402 -65.178299 
L 121.391814 -65.178299 
L 121.391814 -68.158618 
L 132.691226 -68.158618 
L 132.691226 -78.825024 
L 143.990638 -78.825024 
L 143.990638 -94.197197 
L 155.29005 -94.197197 
L 155.29005 -96.393222 
L 166.589462 -96.393222 
L 166.589462 -91.373737 
L 177.888874 -91.373737 
L 177.888874 -85.883675 
L 189.188286 -85.883675 
L 189.188286 -79.45246 
L 200.487698 -79.45246 
L 200.487698 -78.04073 
L 211.78711 -78.04073 
L 211.78711 -83.68765 
L 223.086522 -83.68765 
L 223.086522 -86.66797 
L 234.385934 -86.66797 
L 234.385934 -84.158227 
L 245.685346 -84.158227 
L 245.685346 -88.393418 
L 256.984758 -88.393418 
L 256.984758 -95.29521 
L 268.28417 -95.29521 
L 268.28417 -93.099185 
L 279.583582 -93.099185 
L 279.583582 -100.471554 
L 290.882994 -100.471554 
L 290.882994 -98.902964 
L 302.182406 -98.902964 
L 302.182406 -103.138155 
L 313.481818 -103.138155 
L 313.481818 -106.902769 
L 324.78123 -106.902769 
L 324.78123 -103.608732 
L 336.080642 -103.608732 
L 336.080642 -103.92245 
L 347.380054 -103.92245 
L 347.380054 -102.667578 
L 358.679466 -102.667578 
L 358.679466 -101.255848 
L 369.978878 -101.255848 
L 369.978878 -99.687259 
L 381.27829 -99.687259 
L 381.27829 -97.961811 
L 392.577702 -97.961811 
L 392.577702 -89.49143 
L 403.877114 -89.49143 
L 403.877114 -84.785663 
L 415.176526 -84.785663 
L 415.176526 -77.727012 
L 426.475938 -77.727012 
L 426.475938 -72.550668 
L 437.775351 -72.550668 
L 437.775351 -72.23695 
L 449.074763 -72.23695 
L 449.074763 -68.315477 
L 460.374175 -68.315477 
L 460.374175 -64.080287 
L 471.673587 -64.080287 
L 471.673587 -64.550863 
L 482.972999 -64.550863 
L 482.972999 -60.943108 
L 494.272411 -60.943108 
L 494.272411 -59.845096 
L 505.571823 -59.845096 
L 505.571823 -59.688237 
L 516.871235 -59.688237 
L 516.871235 -58.433366 
L 528.170647 -58.433366 
L 528.170647 -56.551059 
L 533.820353 -56.551059 
L 533.820353 -52.472727 
L 533.820353 -52.472727 
L 528.170647 -52.472727 
L 528.170647 -52.472727 
L 516.871235 -52.472727 
L 516.871235 -52.472727 
L 505.571823 -52.472727 
L 505.571823 -52.472727 
L 494.272411 -52.472727 
L 494.272411 -52.472727 
L 482.972999 -52.472727 
L 482.972999 -52.472727 
L 471.673587 -52.472727 
L 471.673587 -52.472727 
L 460.374175 -52.472727 
L 460.374175 -52.472727 
L 449.074763 -52.472727 
L 449.074763 -52.472727 
L 437.775351 -52.472727 
L 437.775351 -52.472727 
L 426.475938 -52.472727 
L 426.475938 -52.472727 
L 415.176526 -52.472727 
L 415.176526 -52.472727 
L 403.877114 -52.472727 
L 403.877114 -52.472727 
L 392.577702 -52.472727 
L 392.577702 -52.472727 
L 381.27829 -52.472727 
L 381.27829 -52.472727 
L 369.978878 -52.472727 
L 369.978878 -52.472727 
L 358.679466 -52.472727 
L 358.679466 -52.472727 
L 347.380054 -52.472727 
L 347.380054 -52.472727 
L 336.080642 -52.472727 
L 336.080642 -52.472727 
L 324.78123 -52.472727 
L 324.78123 -52.472727 
L 313.481818 -52.472727 
L 313.481818 -52.472727 
L 302.182406 -52.472727 
L 302.182406 -52.472727 
L 290.882994 -52.472727 
L 290.882994 -52.472727 
L 279.583582 -52.472727 
L 279.583582 -52.472727 
L 268.28417 -52.472727 
L 268.28417 -52.472727 
L 256.984758 -52.472727 
L 256.984758 -52.472727 
L 245.685346 -52.472727 
L 245.685346 -52.472727 
L 234.385934 -52.472727 
L 234.385934 -52.472727 
L 223.086522 -52.472727 
L 223.086522 -52.472727 
L 211.78711 -52.472727 
L 211.78711 -52.472727 
L 200.487698 -52.472727 
L 200.487698 -52.472727 
L 189.188286 -52.472727 
L 189.188286 -52.472727 
L 177.888874 -52.472727 
L 177.888874 -52.472727 
L 166.589462 -52.472727 
L 166.589462 -52.472727 
L 155.29005 -52.472727 
L 155.29005 -52.472727 
L 143.990638 -52.472727 
L 143.990638 -52.472727 
L 132.691226 -52.472727 
L 132.691226 -52.472727 
L 121.391814 -52.472727 
L 121.391814 -52.472727 
L 110.092402 -52.472727 
L 110.092402 -52.472727 
L 98.79299 -52.472727 
L 98.79299 -52.472727 
L 93.143284 -52.472727 
z
"/>
    </defs>
    <g clip-path="url(#p713a1d5b81)">
     <use xlink:href="#m0a769a3689" x="0" y="346.9932" style="fill: #f5b27e; fill-opacity: 0.16"/>
    </g>
   </g>
   <g id="FillBetweenPolyCollection_3">
    <defs>
     <path id="m39d82a3562" d="M 93.143284 -52.472727 
L 93.143284 -58.601103 
L 98.79299 -58.601103 
L 98.79299 -63.1581 
L 110.092402 -63.1581 
L 110.092402 -67.872236 
L 121.391814 -67.872236 
L 121.391814 -71.643544 
L 132.691226 -71.643544 
L 132.691226 -78.243333 
L 143.990638 -78.243333 
L 143.990638 -82.957468 
L 155.29005 -82.957468 
L 155.29005 -88.928706 
L 166.589462 -88.928706 
L 166.589462 -86.571639 
L 177.888874 -86.571639 
L 177.888874 -84.371709 
L 189.188286 -84.371709 
L 189.188286 -80.286125 
L 200.487698 -80.286125 
L 200.487698 -77.77192 
L 211.78711 -77.77192 
L 211.78711 -80.128987 
L 223.086522 -80.128987 
L 223.086522 -80.914676 
L 234.385934 -80.914676 
L 234.385934 -82.957468 
L 245.685346 -82.957468 
L 245.685346 -76.357679 
L 256.984758 -76.357679 
L 256.984758 -90.028671 
L 268.28417 -90.028671 
L 268.28417 -81.38609 
L 279.583582 -81.38609 
L 279.583582 -90.500085 
L 290.882994 -90.500085 
L 290.882994 -98.82839 
L 302.182406 -98.82839 
L 302.182406 -97.571288 
L 313.481818 -97.571288 
L 313.481818 -103.071112 
L 324.78123 -103.071112 
L 324.78123 -103.856801 
L 336.080642 -103.856801 
L 336.080642 -99.142666 
L 347.380054 -99.142666 
L 347.380054 -104.171077 
L 358.679466 -104.171077 
L 358.679466 -103.699663 
L 369.978878 -103.699663 
L 369.978878 -103.071112 
L 381.27829 -103.071112 
L 381.27829 -97.885563 
L 392.577702 -97.885563 
L 392.577702 -92.385739 
L 403.877114 -92.385739 
L 403.877114 -94.428531 
L 415.176526 -94.428531 
L 415.176526 -85.157398 
L 426.475938 -85.157398 
L 426.475938 -81.857503 
L 437.775351 -81.857503 
L 437.775351 -77.77192 
L 449.074763 -77.77192 
L 449.074763 -72.900647 
L 460.374175 -72.900647 
L 460.374175 -70.386441 
L 471.673587 -70.386441 
L 471.673587 -68.972201 
L 482.972999 -68.972201 
L 482.972999 -65.35803 
L 494.272411 -65.35803 
L 494.272411 -64.258065 
L 505.571823 -64.258065 
L 505.571823 -63.94379 
L 516.871235 -63.94379 
L 516.871235 -58.915379 
L 528.170647 -58.915379 
L 528.170647 -59.072517 
L 533.820353 -59.072517 
L 533.820353 -52.472727 
L 533.820353 -52.472727 
L 528.170647 -52.472727 
L 528.170647 -52.472727 
L 516.871235 -52.472727 
L 516.871235 -52.472727 
L 505.571823 -52.472727 
L 505.571823 -52.472727 
L 494.272411 -52.472727 
L 494.272411 -52.472727 
L 482.972999 -52.472727 
L 482.972999 -52.472727 
L 471.673587 -52.472727 
L 471.673587 -52.472727 
L 460.374175 -52.472727 
L 460.374175 -52.472727 
L 449.074763 -52.472727 
L 449.074763 -52.472727 
L 437.775351 -52.472727 
L 437.775351 -52.472727 
L 426.475938 -52.472727 
L 426.475938 -52.472727 
L 415.176526 -52.472727 
L 415.176526 -52.472727 
L 403.877114 -52.472727 
L 403.877114 -52.472727 
L 392.577702 -52.472727 
L 392.577702 -52.472727 
L 381.27829 -52.472727 
L 381.27829 -52.472727 
L 369.978878 -52.472727 
L 369.978878 -52.472727 
L 358.679466 -52.472727 
L 358.679466 -52.472727 
L 347.380054 -52.472727 
L 347.380054 -52.472727 
L 336.080642 -52.472727 
L 336.080642 -52.472727 
L 324.78123 -52.472727 
L 324.78123 -52.472727 
L 313.481818 -52.472727 
L 313.481818 -52.472727 
L 302.182406 -52.472727 
L 302.182406 -52.472727 
L 290.882994 -52.472727 
L 290.882994 -52.472727 
L 279.583582 -52.472727 
L 279.583582 -52.472727 
L 268.28417 -52.472727 
L 268.28417 -52.472727 
L 256.984758 -52.472727 
L 256.984758 -52.472727 
L 245.685346 -52.472727 
L 245.685346 -52.472727 
L 234.385934 -52.472727 
L 234.385934 -52.472727 
L 223.086522 -52.472727 
L 223.086522 -52.472727 
L 211.78711 -52.472727 
L 211.78711 -52.472727 
L 200.487698 -52.472727 
L 200.487698 -52.472727 
L 189.188286 -52.472727 
L 189.188286 -52.472727 
L 177.888874 -52.472727 
L 177.888874 -52.472727 
L 166.589462 -52.472727 
L 166.589462 -52.472727 
L 155.29005 -52.472727 
L 155.29005 -52.472727 
L 143.990638 -52.472727 
L 143.990638 -52.472727 
L 132.691226 -52.472727 
L 132.691226 -52.472727 
L 121.391814 -52.472727 
L 121.391814 -52.472727 
L 110.092402 -52.472727 
L 110.092402 -52.472727 
L 98.79299 -52.472727 
L 98.79299 -52.472727 
L 93.143284 -52.472727 
z
"/>
    </defs>
    <g clip-path="url(#p713a1d5b81)">
     <use xlink:href="#m39d82a3562" x="0" y="346.9932" style="fill: #8291e8; fill-opacity: 0.16"/>
    </g>
   </g>
   <g id="line2d_57">
    <path d="M 93.143284 269.464347 
L 104.442696 271.030355 
L 115.742108 265.437469 
L 127.04152 265.157825 
L 138.340932 261.460307 
L 149.640344 259.720298 
L 160.939756 259.720298 
L 172.239168 252.760263 
L 183.53858 252.760263 
L 194.837992 252.760263 
L 206.137404 252.760263 
L 217.436816 254.500272 
L 228.736228 251.020254 
L 240.03564 256.24028 
L 251.335052 252.760263 
L 262.634464 259.720298 
L 273.933876 263.200315 
L 285.233288 261.460307 
L 296.5327 254.500272 
L 307.832112 254.500272 
L 319.131524 254.500272 
L 330.430936 261.460307 
L 341.730348 257.980289 
L 353.02976 257.980289 
L 364.329172 252.760263 
L 375.628584 256.24028 
L 386.927996 257.980289 
L 398.227408 268.420342 
L 409.52682 264.940324 
L 420.826232 268.420342 
L 432.125645 268.420342 
L 443.425057 273.640368 
L 454.724469 278.860394 
L 466.023881 280.600403 
L 477.323293 280.600403 
L 488.622705 284.08042 
L 499.922117 282.775414 
L 511.221529 287.80901 
L 522.520941 289.300446 
L 533.820353 288.256441 
" clip-path="url(#p713a1d5b81)" style="fill: none; stroke-dasharray: 6,3.9; stroke-dashoffset: 0; stroke: #9aa0a6; stroke-width: 1.5; stroke-linecap: round"/>
   </g>
   <g id="line2d_58">
    <path d="M 93.143284 289.766789 
L 98.79299 289.766789 
L 98.79299 274.147542 
L 110.092402 274.147542 
L 110.092402 276.184835 
L 121.391814 276.184835 
L 121.391814 259.546942 
L 132.691226 259.546942 
L 132.691226 264.4704 
L 143.990638 264.4704 
L 143.990638 258.528295 
L 155.29005 258.528295 
L 155.29005 236.797169 
L 166.589462 236.797169 
L 166.589462 232.552808 
L 177.888874 232.552808 
L 177.888874 260.735363 
L 189.188286 260.735363 
L 189.188286 264.130851 
L 200.487698 264.130851 
L 200.487698 268.884535 
L 211.78711 268.884535 
L 211.78711 271.431151 
L 223.086522 271.431151 
L 223.086522 264.4704 
L 234.385934 264.4704 
L 234.385934 261.584235 
L 245.685346 261.584235 
L 245.685346 255.64213 
L 256.984758 255.64213 
L 256.984758 248.851153 
L 268.28417 248.851153 
L 268.28417 237.136718 
L 279.583582 237.136718 
L 279.583582 257.339874 
L 290.882994 257.339874 
L 290.882994 232.383034 
L 302.182406 232.383034 
L 302.182406 254.453709 
L 313.481818 254.453709 
L 313.481818 244.267244 
L 324.78123 244.267244 
L 324.78123 271.600926 
L 336.080642 271.600926 
L 336.080642 223.554764 
L 347.380054 223.554764 
L 347.380054 230.855064 
L 358.679466 230.855064 
L 358.679466 263.621528 
L 369.978878 263.621528 
L 369.978878 256.151453 
L 381.27829 256.151453 
L 381.27829 242.909048 
L 392.577702 242.909048 
L 392.577702 263.791302 
L 403.877114 263.791302 
L 403.877114 266.337919 
L 415.176526 266.337919 
L 415.176526 271.7707 
L 426.475938 271.7707 
L 426.475938 279.410549 
L 437.775351 279.410549 
L 437.775351 276.184835 
L 449.074763 276.184835 
L 449.074763 282.466489 
L 460.374175 282.466489 
L 460.374175 291.973856 
L 471.673587 291.973856 
L 471.673587 287.050398 
L 482.972999 287.050398 
L 482.972999 288.748142 
L 494.272411 288.748142 
L 494.272411 290.615661 
L 505.571823 290.615661 
L 505.571823 284.503782 
L 516.871235 284.503782 
L 516.871235 289.087691 
L 528.170647 289.087691 
L 528.170647 281.617617 
L 533.820353 281.617617 
" clip-path="url(#p713a1d5b81)" style="fill: none; stroke-dasharray: 11.4,3.8; stroke-dashoffset: 0; stroke: #b58fdb; stroke-width: 1.9; stroke-linecap: round"/>
   </g>
   <g id="line2d_59">
    <path d="M 93.143284 289.500988 
L 98.79299 289.500988 
L 98.79299 287.618681 
L 110.092402 287.618681 
L 110.092402 281.814901 
L 121.391814 281.814901 
L 121.391814 278.834582 
L 132.691226 278.834582 
L 132.691226 268.168176 
L 143.990638 268.168176 
L 143.990638 252.796003 
L 155.29005 252.796003 
L 155.29005 250.599978 
L 166.589462 250.599978 
L 166.589462 255.619463 
L 177.888874 255.619463 
L 177.888874 261.109525 
L 189.188286 261.109525 
L 189.188286 267.54074 
L 200.487698 267.54074 
L 200.487698 268.95247 
L 211.78711 268.95247 
L 211.78711 263.30555 
L 223.086522 263.30555 
L 223.086522 260.32523 
L 234.385934 260.32523 
L 234.385934 262.834973 
L 245.685346 262.834973 
L 245.685346 258.599782 
L 256.984758 258.599782 
L 256.984758 251.69799 
L 268.28417 251.69799 
L 268.28417 253.894015 
L 279.583582 253.894015 
L 279.583582 246.521646 
L 290.882994 246.521646 
L 290.882994 248.090236 
L 302.182406 248.090236 
L 302.182406 243.855045 
L 313.481818 243.855045 
L 313.481818 240.090431 
L 324.78123 240.090431 
L 324.78123 243.384468 
L 336.080642 243.384468 
L 336.080642 243.07075 
L 347.380054 243.07075 
L 347.380054 244.325622 
L 358.679466 244.325622 
L 358.679466 245.737352 
L 369.978878 245.737352 
L 369.978878 247.305941 
L 381.27829 247.305941 
L 381.27829 249.031389 
L 392.577702 249.031389 
L 392.577702 257.50177 
L 403.877114 257.50177 
L 403.877114 262.207537 
L 415.176526 262.207537 
L 415.176526 269.266188 
L 426.475938 269.266188 
L 426.475938 274.442532 
L 437.775351 274.442532 
L 437.775351 274.75625 
L 449.074763 274.75625 
L 449.074763 278.677723 
L 460.374175 278.677723 
L 460.374175 282.912913 
L 471.673587 282.912913 
L 471.673587 282.442337 
L 482.972999 282.442337 
L 482.972999 286.050092 
L 494.272411 286.050092 
L 494.272411 287.148104 
L 505.571823 287.148104 
L 505.571823 287.304963 
L 516.871235 287.304963 
L 516.871235 288.559834 
L 528.170647 288.559834 
L 528.170647 290.442141 
L 533.820353 290.442141 
" clip-path="url(#p713a1d5b81)" style="fill: none; stroke: #f5b27e; stroke-width: 2.04; stroke-linecap: round"/>
   </g>
   <g id="line2d_60">
    <path d="M 93.143284 288.392097 
L 98.79299 288.392097 
L 98.79299 283.8351 
L 110.092402 283.8351 
L 110.092402 279.120964 
L 121.391814 279.120964 
L 121.391814 275.349656 
L 132.691226 275.349656 
L 132.691226 268.749867 
L 143.990638 268.749867 
L 143.990638 264.035732 
L 155.29005 264.035732 
L 155.29005 258.064494 
L 166.589462 258.064494 
L 166.589462 260.421561 
L 177.888874 260.421561 
L 177.888874 262.621491 
L 189.188286 262.621491 
L 189.188286 266.707075 
L 200.487698 266.707075 
L 200.487698 269.22128 
L 211.78711 269.22128 
L 211.78711 266.864213 
L 223.086522 266.864213 
L 223.086522 266.078524 
L 234.385934 266.078524 
L 234.385934 264.035732 
L 245.685346 264.035732 
L 245.685346 270.635521 
L 256.984758 270.635521 
L 256.984758 256.964529 
L 268.28417 256.964529 
L 268.28417 265.60711 
L 279.583582 265.60711 
L 279.583582 256.493115 
L 290.882994 256.493115 
L 290.882994 248.16481 
L 302.182406 248.16481 
L 302.182406 249.421912 
L 313.481818 249.421912 
L 313.481818 243.922088 
L 324.78123 243.922088 
L 324.78123 243.136399 
L 336.080642 243.136399 
L 336.080642 247.850534 
L 347.380054 247.850534 
L 347.380054 242.822123 
L 358.679466 242.822123 
L 358.679466 243.293537 
L 369.978878 243.293537 
L 369.978878 243.922088 
L 381.27829 243.922088 
L 381.27829 249.107637 
L 392.577702 249.107637 
L 392.577702 254.607461 
L 403.877114 254.607461 
L 403.877114 252.564669 
L 415.176526 252.564669 
L 415.176526 261.835802 
L 426.475938 261.835802 
L 426.475938 265.135697 
L 437.775351 265.135697 
L 437.775351 269.22128 
L 449.074763 269.22128 
L 449.074763 274.092553 
L 460.374175 274.092553 
L 460.374175 276.606759 
L 471.673587 276.606759 
L 471.673587 278.020999 
L 482.972999 278.020999 
L 482.972999 281.63517 
L 494.272411 281.63517 
L 494.272411 282.735135 
L 505.571823 282.735135 
L 505.571823 283.04941 
L 516.871235 283.04941 
L 516.871235 288.077821 
L 528.170647 288.077821 
L 528.170647 287.920683 
L 533.820353 287.920683 
" clip-path="url(#p713a1d5b81)" style="fill: none; stroke: #8291e8; stroke-width: 2.04; stroke-linecap: round"/>
   </g>
  </g>
 </g>
 <defs>
  <clipPath id="p3f11823a27">
   <rect x="86.363636" y="7.5" width="454.236364" height="200.096264"/>
  </clipPath>
  <clipPath id="p713a1d5b81">
   <rect x="86.363636" y="214.329222" width="454.236364" height="80.191251"/>
  </clipPath>
 </defs>
</svg>
