<?xml version="1.0" encoding="utf-8" standalone="no"?>
<!DOCTYPE svg PUBLIC "-//W3C//DTD SVG 1.1//EN"
  "http://www.w3.org/Graphics/SVG/1.1/DTD/svg11.dtd">
<svg xmlns:xlink="http://www.w3.org/1999/xlink" width="531.144pt" height="291.6pt" viewBox="0 0 531.144 291.6" xmlns="http://www.w3.org/2000/svg" version="1.1">
 <metadata>
  <rdf:RDF xmlns:dc="http://purl.org/dc/elements/1.1/" xmlns:cc="http://creativecommons.org/ns#" xmlns:rdf="http://www.w3.org/1999/02/22-rdf-syntax-ns#">
   <cc:Work>
    <dc:type rdf:resource="http://purl.org/dc/dcmitype/StillImage"/>
    <dc:date>2026-09-09T14:40:18.024010</dc:date>
    <dc:format>image/svg+xml</dc:format>
    <dc:creator>
     <cc:Agent>
      <dc:title>Matplotlib v3.10.9, https://matplotlib.org/</dc:title>
     </cc:Agent>
    </dc:creator>
   </cc:Work>
  </rdf:RDF>
 </metadata>
 <defs>
  <style type="text/css">*{stroke-linejoin: round; stroke-linecap: butt}</style>
 </defs>
 <g id="figure_1">
  <g id="patch_1">
   <path d="M 0 291.6 
L 531.144 291.6 
L 531.144 0 
L 0 0 
z
" style="fill: #ffffff"/>
  </g>
  <g id="axes_1">
   <g id="patch_2">
    <path d="M 114.959091 239.127273 
L 351.688052 239.127273 
L 351.688052 7.5 
L 114.959091 7.5 
z
" style="fill: #ffffff"/>
   </g>
   <g id="matplotlib.axis_1">
    <g id="xtick_1">
     <g id="line2d_1">
      <path d="M 117.846029 239.127273 
L 117.846029 7.5 
" clip-path="url(#p35554ac92a)" style="fill: none; stroke-dasharray: 1.3,3.38; stroke-dashoffset: 0; stroke: #c2c6cd; stroke-width: 1.3"/>
     </g>
     <g id="line2d_2">
      <defs>
       <path id="mb229f29989" d="M 0 0 
L 0 3.5 
" style="stroke: #514f52; stroke-width: 1.6"/>
      </defs>
      <g>
       <use xlink:href="#mb229f29989" x="117.846029" y="239.127273" style="fill: #514f52; stroke: #514f52; stroke-width: 1.6"/>
      </g>
     </g>
     <g id="text_1">
      <text style="font-size: 14px; font-family: 'DejaVu Sans'; text-anchor: middle; fill: #514f52" x="117.846029" y="257.265085" transform="rotate(-0 117.846029 257.265085)">0.08</text>
     </g>
    </g>
    <g id="xtick_2">
     <g id="line2d_3">
      <path d="M 175.584801 239.127273 
L 175.584801 7.5 
" clip-path="url(#p35554ac92a)" style="fill: none; stroke-dasharray: 1.3,3.38; stroke-dashoffset: 0; stroke: #c2c6cd; stroke-width: 1.3"/>
     </g>
     <g id="line2d_4">
      <g>
       <use xlink:href="#mb229f29989" x="175.584801" y="239.127273" style="fill: #514f52; stroke: #514f52; stroke-width: 1.6"/>
      </g>
     </g>
     <g id="text_2">
      <text style="font-size: 14px; font-family: 'DejaVu Sans'; text-anchor: middle; fill: #514f52" x="175.584801" y="257.265085" transform="rotate(-0 175.584801 257.265085)">0.10</text>
     </g>
    </g>
    <g id="xtick_3">
     <g id="line2d_5">
      <path d="M 233.323572 239.127273 
L 233.323572 7.5 
" clip-path="url(#p35554ac92a)" style="fill: none; stroke-dasharray: 1.3,3.38; stroke-dashoffset: 0; stroke: #c2c6cd; stroke-width: 1.3"/>
     </g>
     <g id="line2d_6">
      <g>
       <use xlink:href="#mb229f29989" x="233.323572" y="239.127273" style="fill: #514f52; stroke: #514f52; stroke-width: 1.6"/>
      </g>
     </g>
     <g id="text_3">
      <text style="font-size: 14px; font-family: 'DejaVu Sans'; text-anchor: middle; fill: #514f52" x="233.323572" y="257.265085" transform="rotate(-0 233.323572 257.265085)">0.12</text>
     </g>
    </g>
    <g id="xtick_4">
     <g id="line2d_7">
      <path d="M 291.062343 239.127273 
L 291.062343 7.5 
" clip-path="url(#p35554ac92a)" style="fill: none; stroke-dasharray: 1.3,3.38; stroke-dashoffset: 0; stroke: #c2c6cd; stroke-width: 1.3"/>
     </g>
     <g id="line2d_8">
      <g>
       <use xlink:href="#mb229f29989" x="291.062343" y="239.127273" style="fill: #514f52; stroke: #514f52; stroke-width: 1.6"/>
      </g>
     </g>
     <g id="text_4">
      <text style="font-size: 14px; font-family: 'DejaVu Sans'; text-anchor: middle; fill: #514f52" x="291.062343" y="257.265085" transform="rotate(-0 291.062343 257.265085)">0.14</text>
     </g>
    </g>
    <g id="xtick_5">
     <g id="line2d_9">
      <path d="M 348.801114 239.127273 
L 348.801114 7.5 
" clip-path="url(#p35554ac92a)" style="fill: none; stroke-dasharray: 1.3,3.38; stroke-dashoffset: 0; stroke: #c2c6cd; stroke-width: 1.3"/>
     </g>
     <g id="line2d_10">
      <g>
       <use xlink:href="#mb229f29989" x="348.801114" y="239.127273" style="fill: #514f52; stroke: #514f52; stroke-width: 1.6"/>
      </g>
     </g>
     <g id="text_5">
      <text style="font-size: 14px; font-family: 'DejaVu Sans'; text-anchor: middle; fill: #514f52" x="348.801114" y="257.265085" transform="rotate(-0 348.801114 257.265085)">0.16</text>
     </g>
    </g>
    <g id="text_6">
     <text style="font-size: 15px; font-family: 'DejaVu Sans'; text-anchor: middle; fill: #514f52" x="233.323572" y="280.574304" transform="rotate(-0 233.323572 280.574304)">ECFP4 Tanimoto similarity</text>
    </g>
   </g>
   <g id="matplotlib.axis_2">
    <g id="ytick_1">
     <g id="line2d_11"/>
     <g id="text_7">
      <text style="font-size: 14px; font-family: 'DejaVu Sans'; text-anchor: end; fill: #514f52" x="110.959091" y="30.067746" transform="rotate(-0 110.959091 30.067746)">AR</text>
     </g>
    </g>
    <g id="ytick_2">
     <g id="line2d_12"/>
     <g id="text_8">
      <text style="font-size: 14px; font-family: 'DejaVu Sans'; text-anchor: end; fill: #514f52" x="110.959091" y="54.708945" transform="rotate(-0 110.959091 54.708945)">Pocket2Mol</text>
     </g>
    </g>
    <g id="ytick_3">
     <g id="line2d_13"/>
     <g id="text_9">
      <text style="font-size: 14px; font-family: 'DejaVu Sans'; text-anchor: end; fill: #514f52" x="110.959091" y="79.350144" transform="rotate(-0 110.959091 79.350144)">DiffSBDD</text>
     </g>
    </g>
    <g id="ytick_4">
     <g id="line2d_14"/>
     <g id="text_10">
      <text style="font-size: 14px; font-family: 'DejaVu Sans'; text-anchor: end; fill: #514f52" x="110.959091" y="103.991343" transform="rotate(-0 110.959091 103.991343)">DecompDiff</text>
     </g>
    </g>
    <g id="ytick_5">
     <g id="line2d_15"/>
     <g id="text_11">
      <text style="font-size: 14px; font-family: 'DejaVu Sans'; text-anchor: end; fill: #514f52" x="110.959091" y="128.632543" transform="rotate(-0 110.959091 128.632543)">FuncBind</text>
     </g>
    </g>
    <g id="ytick_6">
     <g id="line2d_16"/>
     <g id="text_12">
      <text style="font-size: 14px; font-family: 'DejaVu Sans'; text-anchor: end; fill: #514f52" x="110.959091" y="153.273742" transform="rotate(-0 110.959091 153.273742)">TargetDiff</text>
     </g>
    </g>
    <g id="ytick_7">
     <g id="line2d_17"/>
     <g id="text_13">
      <text style="font-size: 14px; font-family: 'DejaVu Sans'; text-anchor: end; fill: #514f52" x="110.959091" y="177.914941" transform="rotate(-0 110.959091 177.914941)">VoxBind σ=0.9</text>
     </g>
    </g>
    <g id="ytick_8">
     <g id="line2d_18"/>
     <g id="text_14">
      <text style="font-size: 14px; font-family: 'DejaVu Sans'; text-anchor: end; fill: #514f52" x="110.959091" y="202.55614" transform="rotate(-0 110.959091 202.55614)">VoxBind σ=1.0</text>
     </g>
    </g>
    <g id="ytick_9">
     <g id="line2d_19"/>
     <g id="text_15">
      <text style="font-weight: 700; font-size: 14px; font-family: 'DejaVu Sans'; text-anchor: end; fill: #514f52" x="110.959091" y="227.19734" transform="rotate(-0 110.959091 227.19734)">Ours</text>
     </g>
    </g>
   </g>
   <g id="line2d_20">
    <path d="M 164.037046 24.748839 
L 175.584801 24.748839 
" clip-path="url(#p35554ac92a)" style="fill: none; stroke: #9aa0a6; stroke-opacity: 0.5; stroke-width: 3.6; stroke-linecap: round"/>
   </g>
   <g id="line2d_21">
    <path d="M 152.489292 49.390039 
L 166.923985 49.390039 
" clip-path="url(#p35554ac92a)" style="fill: none; stroke: #9aa0a6; stroke-opacity: 0.5; stroke-width: 3.6; stroke-linecap: round"/>
   </g>
   <g id="line2d_22">
    <path d="M 132.280722 74.031238 
L 143.828476 74.031238 
" clip-path="url(#p35554ac92a)" style="fill: none; stroke: #9aa0a6; stroke-opacity: 0.5; stroke-width: 3.6; stroke-linecap: round"/>
   </g>
   <g id="line2d_23">
    <path d="M 282.401527 98.672437 
L 325.705605 98.672437 
" clip-path="url(#p35554ac92a)" style="fill: none; stroke: #9aa0a6; stroke-opacity: 0.5; stroke-width: 3.6; stroke-linecap: round"/>
   </g>
   <g id="line2d_24">
    <path d="M 203.910458 123.313636 
L 227.637781 123.313636 
" clip-path="url(#p35554ac92a)" style="fill: none; stroke: #9aa0a6; stroke-opacity: 0.5; stroke-width: 3.6; stroke-linecap: round"/>
   </g>
   <g id="line2d_25">
    <path d="M 137.931884 147.954836 
L 149.818107 147.954836 
" clip-path="url(#p35554ac92a)" style="fill: none; stroke: #9aa0a6; stroke-opacity: 0.5; stroke-width: 3.6; stroke-linecap: round"/>
   </g>
   <g id="line2d_26">
    <path d="M 151.690975 172.596035 
L 173.817108 172.596035 
" clip-path="url(#p35554ac92a)" style="fill: none; stroke: #f5b27e; stroke-opacity: 0.5; stroke-width: 3.6; stroke-linecap: round"/>
   </g>
   <g id="line2d_27">
    <path d="M 171.374768 197.237234 
L 185.485399 197.237234 
" clip-path="url(#p35554ac92a)" style="fill: none; stroke: #f5b27e; stroke-opacity: 0.5; stroke-width: 3.6; stroke-linecap: round"/>
   </g>
   <g id="line2d_28">
    <path d="M 157.932128 221.878433 
L 173.793189 221.878433 
" clip-path="url(#p35554ac92a)" style="fill: none; stroke: #8291e8; stroke-opacity: 0.5; stroke-width: 3.6; stroke-linecap: round"/>
   </g>
   <g id="patch_3">
    <path d="M 114.959091 239.127273 
L 351.688052 239.127273 
" style="fill: none; stroke: #514f52; stroke-width: 1.6; stroke-linejoin: miter; stroke-linecap: square"/>
   </g>
   <g id="line2d_29">
    <path d="M 164.037046 24.748839 
" clip-path="url(#p35554ac92a)" style="fill: none; stroke: #9aa0a6; stroke-width: 1.5; stroke-linecap: square"/>
    <defs>
     <path id="mbf9a72554a" d="M 0 3.5 
C 0.928211 3.5 1.81853 3.131218 2.474874 2.474874 
C 3.131218 1.81853 3.5 0.928211 3.5 0 
C 3.5 -0.928211 3.131218 -1.81853 2.474874 -2.474874 
C 1.81853 -3.131218 0.928211 -3.5 0 -3.5 
C -0.928211 -3.5 -1.81853 -3.131218 -2.474874 -2.474874 
C -3.131218 -1.81853 -3.5 -0.928211 -3.5 0 
C -3.5 0.928211 -3.131218 1.81853 -2.474874 2.474874 
C -1.81853 3.131218 -0.928211 3.5 0 3.5 
z
" style="stroke: #9aa0a6; stroke-width: 2.7"/>
    </defs>
    <g clip-path="url(#p35554ac92a)">
     <use xlink:href="#mbf9a72554a" x="164.037046" y="24.748839" style="fill: #ffffff; stroke: #9aa0a6; stroke-width: 2.7"/>
    </g>
   </g>
   <g id="line2d_30">
    <path d="M 152.489292 49.390039 
" clip-path="url(#p35554ac92a)" style="fill: none; stroke: #9aa0a6; stroke-width: 1.5; stroke-linecap: square"/>
    <g clip-path="url(#p35554ac92a)">
     <use xlink:href="#mbf9a72554a" x="152.489292" y="49.390039" style="fill: #ffffff; stroke: #9aa0a6; stroke-width: 2.7"/>
    </g>
   </g>
   <g id="line2d_31">
    <path d="M 132.280722 74.031238 
" clip-path="url(#p35554ac92a)" style="fill: none; stroke: #9aa0a6; stroke-width: 1.5; stroke-linecap: square"/>
    <g clip-path="url(#p35554ac92a)">
     <use xlink:href="#mbf9a72554a" x="132.280722" y="74.031238" style="fill: #ffffff; stroke: #9aa0a6; stroke-width: 2.7"/>
    </g>
   </g>
   <g id="line2d_32">
    <path d="M 282.401527 98.672437 
" clip-path="url(#p35554ac92a)" style="fill: none; stroke: #9aa0a6; stroke-width: 1.5; stroke-linecap: square"/>
    <g clip-path="url(#p35554ac92a)">
     <use xlink:href="#mbf9a72554a" x="282.401527" y="98.672437" style="fill: #ffffff; stroke: #9aa0a6; stroke-width: 2.7"/>
    </g>
   </g>
   <g id="line2d_33">
    <path d="M 203.910458 123.313636 
" clip-path="url(#p35554ac92a)" style="fill: none; stroke: #9aa0a6; stroke-width: 1.5; stroke-linecap: square"/>
    <g clip-path="url(#p35554ac92a)">
     <use xlink:href="#mbf9a72554a" x="203.910458" y="123.313636" style="fill: #ffffff; stroke: #9aa0a6; stroke-width: 2.7"/>
    </g>
   </g>
   <g id="line2d_34">
    <path d="M 137.931884 147.954836 
" clip-path="url(#p35554ac92a)" style="fill: none; stroke: #9aa0a6; stroke-width: 1.5; stroke-linecap: square"/>
    <g clip-path="url(#p35554ac92a)">
     <use xlink:href="#mbf9a72554a" x="137.931884" y="147.954836" style="fill: #ffffff; stroke: #9aa0a6; stroke-width: 2.7"/>
    </g>
   </g>
   <g id="line2d_35">
    <path d="M 151.690975 172.596035 
" clip-path="url(#p35554ac92a)" style="fill: none; stroke: #f5b27e; stroke-width: 1.5; stroke-linecap: square"/>
    <defs>
     <path id="m8668e2e41a" d="M 0 3.5 
C 0.928211 3.5 1.81853 3.131218 2.474874 2.474874 
C 3.131218 1.81853 3.5 0.928211 3.5 0 
C 3.5 -0.928211 3.131218 -1.81853 2.474874 -2.474874 
C 1.81853 -3.131218 0.928211 -3.5 0 -3.5 
C -0.928211 -3.5 -1.81853 -3.131218 -2.474874 -2.474874 
C -3.131218 -1.81853 -3.5 -0.928211 -3.5 0 
C -3.5 0.928211 -3.131218 1.81853 -2.474874 2.474874 
C -1.81853 3.131218 -0.928211 3.5 0 3.5 
z
" style="stroke: #f5b27e; stroke-width: 2.7"/>
    </defs>
    <g clip-path="url(#p35554ac92a)">
     <use xlink:href="#m8668e2e41a" x="151.690975" y="172.596035" style="fill: #ffffff; stroke: #f5b27e; stroke-width: 2.7"/>
    </g>
   </g>
   <g id="line2d_36">
    <path d="M 171.374768 197.237234 
" clip-path="url(#p35554ac92a)" style="fill: none; stroke: #f5b27e; stroke-width: 1.5; stroke-linecap: square"/>
    <g clip-path="url(#p35554ac92a)">
     <use xlink:href="#m8668e2e41a" x="171.374768" y="197.237234" style="fill: #ffffff; stroke: #f5b27e; stroke-width: 2.7"/>
    </g>
   </g>
   <g id="line2d_37">
    <path d="M 157.932128 221.878433 
" clip-path="url(#p35554ac92a)" style="fill: none; stroke: #8291e8; stroke-width: 1.5; stroke-linecap: square"/>
    <defs>
     <path id="m36cd6c4d17" d="M 0 3.5 
C 0.928211 3.5 1.81853 3.131218 2.474874 2.474874 
C 3.131218 1.81853 3.5 0.928211 3.5 0 
C 3.5 -0.928211 3.131218 -1.81853 2.474874 -2.474874 
C 1.81853 -3.131218 0.928211 -3.5 0 -3.5 
C -0.928211 -3.5 -1.81853 -3.131218 -2.474874 -2.474874 
C -3.131218 -1.81853 -3.5 -0.928211 -3.5 0 
C -3.5 0.928211 -3.131218 1.81853 -2.474874 2.474874 
C -1.81853 3.131218 -0.928211 3.5 0 3.5 
z
" style="stroke: #8291e8; stroke-width: 2.7"/>
    </defs>
    <g clip-path="url(#p35554ac92a)">
     <use xlink:href="#m36cd6c4d17" x="157.932128" y="221.878433" style="fill: #ffffff; stroke: #8291e8; stroke-width: 2.7"/>
    </g>
   </g>
   <g id="line2d_38">
    <path d="M 175.584801 24.748839 
" clip-path="url(#p35554ac92a)" style="fill: none; stroke: #9aa0a6; stroke-width: 1.5; stroke-linecap: square"/>
    <defs>
     <path id="m9e2e640152" d="M 0 5.1 
C 1.352536 5.1 2.649857 4.562632 3.606245 3.606245 
C 4.562632 2.649857 5.1 1.352536 5.1 0 
C 5.1 -1.352536 4.562632 -2.649857 3.606245 -3.606245 
C 2.649857 -4.562632 1.352536 -5.1 0 -5.1 
C -1.352536 -5.1 -2.649857 -4.562632 -3.606245 -3.606245 
C -4.562632 -2.649857 -5.1 -1.352536 -5.1 0 
C -5.1 1.352536 -4.562632 2.649857 -3.606245 3.606245 
C -2.649857 4.562632 -1.352536 5.1 0 5.1 
z
"/>
    </defs>
    <g clip-path="url(#p35554ac92a)">
     <use xlink:href="#m9e2e640152" x="175.584801" y="24.748839" style="fill: #9aa0a6"/>
    </g>
   </g>
   <g id="line2d_39">
    <path d="M 166.923985 49.390039 
" clip-path="url(#p35554ac92a)" style="fill: none; stroke: #9aa0a6; stroke-width: 1.5; stroke-linecap: square"/>
    <g clip-path="url(#p35554ac92a)">
     <use xlink:href="#m9e2e640152" x="166.923985" y="49.390039" style="fill: #9aa0a6"/>
    </g>
   </g>
   <g id="line2d_40">
    <path d="M 143.828476 74.031238 
" clip-path="url(#p35554ac92a)" style="fill: none; stroke: #9aa0a6; stroke-width: 1.5; stroke-linecap: square"/>
    <g clip-path="url(#p35554ac92a)">
     <use xlink:href="#m9e2e640152" x="143.828476" y="74.031238" style="fill: #9aa0a6"/>
    </g>
   </g>
   <g id="line2d_41">
    <path d="M 325.705605 98.672437 
" clip-path="url(#p35554ac92a)" style="fill: none; stroke: #9aa0a6; stroke-width: 1.5; stroke-linecap: square"/>
    <g clip-path="url(#p35554ac92a)">
     <use xlink:href="#m9e2e640152" x="325.705605" y="98.672437" style="fill: #9aa0a6"/>
    </g>
   </g>
   <g id="line2d_42">
    <path d="M 227.637781 123.313636 
" clip-path="url(#p35554ac92a)" style="fill: none; stroke: #9aa0a6; stroke-width: 1.5; stroke-linecap: square"/>
    <g clip-path="url(#p35554ac92a)">
     <use xlink:href="#m9e2e640152" x="227.637781" y="123.313636" style="fill: #9aa0a6"/>
    </g>
   </g>
   <g id="line2d_43">
    <path d="M 149.818107 147.954836 
" clip-path="url(#p35554ac92a)" style="fill: none; stroke: #9aa0a6; stroke-width: 1.5; stroke-linecap: square"/>
    <g clip-path="url(#p35554ac92a)">
     <use xlink:href="#m9e2e640152" x="149.818107" y="147.954836" style="fill: #9aa0a6"/>
    </g>
   </g>
   <g id="line2d_44">
    <path d="M 173.817108 172.596035 
" clip-path="url(#p35554ac92a)" style="fill: none; stroke: #f5b27e; stroke-width: 1.5; stroke-linecap: square"/>
    <defs>
     <path id="m248cc1327b" d="M 0 5.1 
C 1.352536 5.1 2.649857 4.562632 3.606245 3.606245 
C 4.562632 2.649857 5.1 1.352536 5.1 0 
C 5.1 -1.352536 4.562632 -2.649857 3.606245 -3.606245 
C 2.649857 -4.562632 1.352536 -5.1 0 -5.1 
C -1.352536 -5.1 -2.649857 -4.562632 -3.606245 -3.606245 
C -4.562632 -2.649857 -5.1 -1.352536 -5.1 0 
C -5.1 1.352536 -4.562632 2.649857 -3.606245 3.606245 
C -2.649857 4.562632 -1.352536 5.1 0 5.1 
z
"/>
    </defs>
    <g clip-path="url(#p35554ac92a)">
     <use xlink:href="#m248cc1327b" x="173.817108" y="172.596035" style="fill: #f5b27e"/>
    </g>
   </g>
   <g id="line2d_45">
    <path d="M 185.485399 197.237234 
" clip-path="url(#p35554ac92a)" style="fill: none; stroke: #f5b27e; stroke-width: 1.5; stroke-linecap: square"/>
    <g clip-path="url(#p35554ac92a)">
     <use xlink:href="#m248cc1327b" x="185.485399" y="197.237234" style="fill: #f5b27e"/>
    </g>
   </g>
   <g id="line2d_46">
    <path d="M 173.793189 221.878433 
" clip-path="url(#p35554ac92a)" style="fill: none; stroke: #8291e8; stroke-width: 1.5; stroke-linecap: square"/>
    <defs>
     <path id="ma16fe32019" d="M 0 5.1 
C 1.352536 5.1 2.649857 4.562632 3.606245 3.606245 
C 4.562632 2.649857 5.1 1.352536 5.1 0 
C 5.1 -1.352536 4.562632 -2.649857 3.606245 -3.606245 
C 2.649857 -4.562632 1.352536 -5.1 0 -5.1 
C -1.352536 -5.1 -2.649857 -4.562632 -3.606245 -3.606245 
C -4.562632 -2.649857 -5.1 -1.352536 -5.1 0 
C -5.1 1.352536 -4.562632 2.649857 -3.606245 3.606245 
C -2.649857 4.562632 -1.352536 5.1 0 5.1 
z
"/>
    </defs>
    <g clip-path="url(#p35554ac92a)">
     <use xlink:href="#ma16fe32019" x="173.793189" y="221.878433" style="fill: #8291e8"/>
    </g>
   </g>
   <g id="legend_1">
    <g id="patch_4">
     <path d="M 265.45563 236.252273 
L 348.813052 236.252273 
L 348.813052 194.30696 
L 265.45563 194.30696 
z
" style="fill: #ffffff; stroke: #b6bbc3; stroke-width: 1.6; stroke-linejoin: miter"/>
    </g>
    <g id="line2d_47">
     <defs>
      <path id="m644643f446" d="M 0 6.4 
C 1.6973 6.4 3.325311 5.725656 4.525483 4.525483 
C 5.725656 3.325311 6.4 1.6973 6.4 0 
C 6.4 -1.6973 5.725656 -3.325311 4.525483 -4.525483 
C 3.325311 -5.725656 1.6973 -6.4 0 -6.4 
C -1.6973 -6.4 -3.325311 -5.725656 -4.525483 -4.525483 
C -5.725656 -3.325311 -6.4 -1.6973 -6.4 0 
C -6.4 1.6973 -5.725656 3.325311 -4.525483 4.525483 
C -3.325311 5.725656 -1.6973 6.4 0 6.4 
z
"/>
     </defs>
     <g>
      <use xlink:href="#m644643f446" x="281.20563" y="206.430007" style="fill: #514f52"/>
     </g>
    </g>
    <g id="text_16">
     <text style="font-size: 12.5px; font-family: 'DejaVu Sans'; text-anchor: start; fill: #514f52" x="294.95563" y="210.805007" transform="rotate(-0 294.95563 210.805007)">mean</text>
    </g>
    <g id="line2d_48">
     <defs>
      <path id="m19507efab5" d="M 0 5.2 
C 1.379056 5.2 2.701815 4.652095 3.676955 3.676955 
C 4.652095 2.701815 5.2 1.379056 5.2 0 
C 5.2 -1.379056 4.652095 -2.701815 3.676955 -3.676955 
C 2.701815 -4.652095 1.379056 -5.2 0 -5.2 
C -1.379056 -5.2 -2.701815 -4.652095 -3.676955 -3.676955 
C -4.652095 -2.701815 -5.2 -1.379056 -5.2 0 
C -5.2 1.379056 -4.652095 2.701815 -3.676955 3.676955 
C -2.701815 4.652095 -1.379056 5.2 0 5.2 
z
" style="stroke: #514f52; stroke-width: 2.2"/>
     </defs>
     <g>
      <use xlink:href="#m19507efab5" x="281.20563" y="222.277663" style="fill: #ffffff; stroke: #514f52; stroke-width: 2.2"/>
     </g>
    </g>
    <g id="text_17">
     <text style="font-size: 12.5px; font-family: 'DejaVu Sans'; text-anchor: start; fill: #514f52" x="294.95563" y="226.652663" transform="rotate(-0 294.95563 226.652663)">median</text>
    </g>
   </g>
  </g>
  <g id="axes_2">
   <g id="patch_5">
    <path d="M 388.370308 239.127273 
L 523.644 239.127273 
L 523.644 7.5 
L 388.370308 7.5 
z
" style="fill: #ffffff"/>
   </g>
   <g id="matplotlib.axis_3">
    <g id="xtick_6">
     <g id="line2d_49">
      <path d="M 388.370308 239.127273 
L 388.370308 7.5 
" clip-path="url(#pe5a185bf74)" style="fill: none; stroke-dasharray: 1.3,3.38; stroke-dashoffset: 0; stroke: #c2c6cd; stroke-width: 1.3"/>
     </g>
     <g id="line2d_50">
      <g>
       <use xlink:href="#mb229f29989" x="388.370308" y="239.127273" style="fill: #514f52; stroke: #514f52; stroke-width: 1.6"/>
      </g>
     </g>
     <g id="text_18">
      <text style="font-size: 14px; font-family: 'DejaVu Sans'; text-anchor: middle; fill: #514f52" x="388.370308" y="257.265085" transform="rotate(-0 388.370308 257.265085)">0</text>
     </g>
    </g>
    <g id="xtick_7">
     <g id="line2d_51">
      <path d="M 431.314337 239.127273 
L 431.314337 7.5 
" clip-path="url(#pe5a185bf74)" style="fill: none; stroke-dasharray: 1.3,3.38; stroke-dashoffset: 0; stroke: #c2c6cd; stroke-width: 1.3"/>
     </g>
     <g id="line2d_52">
      <g>
       <use xlink:href="#mb229f29989" x="431.314337" y="239.127273" style="fill: #514f52; stroke: #514f52; stroke-width: 1.6"/>
      </g>
     </g>
     <g id="text_19">
      <text style="font-size: 14px; font-family: 'DejaVu Sans'; text-anchor: middle; fill: #514f52" x="431.314337" y="257.265085" transform="rotate(-0 431.314337 257.265085)">1</text>
     </g>
    </g>
    <g id="xtick_8">
     <g id="line2d_53">
      <path d="M 474.258366 239.127273 
L 474.258366 7.5 
" clip-path="url(#pe5a185bf74)" style="fill: none; stroke-dasharray: 1.3,3.38; stroke-dashoffset: 0; stroke: #c2c6cd; stroke-width: 1.3"/>
     </g>
     <g id="line2d_54">
      <g>
       <use xlink:href="#mb229f29989" x="474.258366" y="239.127273" style="fill: #514f52; stroke: #514f52; stroke-width: 1.6"/>
      </g>
     </g>
     <g id="text_20">
      <text style="font-size: 14px; font-family: 'DejaVu Sans'; text-anchor: middle; fill: #514f52" x="474.258366" y="257.265085" transform="rotate(-0 474.258366 257.265085)">2</text>
     </g>
    </g>
    <g id="xtick_9">
     <g id="line2d_55">
      <path d="M 517.202396 239.127273 
L 517.202396 7.5 
" clip-path="url(#pe5a185bf74)" style="fill: none; stroke-dasharray: 1.3,3.38; stroke-dashoffset: 0; stroke: #c2c6cd; stroke-width: 1.3"/>
     </g>
     <g id="line2d_56">
      <g>
       <use xlink:href="#mb229f29989" x="517.202396" y="239.127273" style="fill: #514f52; stroke: #514f52; stroke-width: 1.6"/>
      </g>
     </g>
     <g id="text_21">
      <text style="font-size: 14px; font-family: 'DejaVu Sans'; text-anchor: middle; fill: #514f52" x="517.202396" y="257.265085" transform="rotate(-0 517.202396 257.265085)">3</text>
     </g>
    </g>
    <g id="text_22">
     <text style="font-size: 15px; font-family: 'DejaVu Sans'; text-anchor: middle; fill: #514f52" x="456.007154" y="280.574304" transform="rotate(-0 456.007154 280.574304)">Scaffold match (%)</text>
    </g>
   </g>
   <g id="matplotlib.axis_4">
    <g id="ytick_10">
     <g id="line2d_57"/>
    </g>
    <g id="ytick_11">
     <g id="line2d_58"/>
    </g>
    <g id="ytick_12">
     <g id="line2d_59"/>
    </g>
    <g id="ytick_13">
     <g id="line2d_60"/>
    </g>
    <g id="ytick_14">
     <g id="line2d_61"/>
    </g>
    <g id="ytick_15">
     <g id="line2d_62"/>
    </g>
    <g id="ytick_16">
     <g id="line2d_63"/>
    </g>
    <g id="ytick_17">
     <g id="line2d_64"/>
    </g>
    <g id="ytick_18">
     <g id="line2d_65"/>
    </g>
   </g>
   <g id="line2d_66">
    <path d="M 388.370308 24.748839 
L 433.032098 24.748839 
" clip-path="url(#pe5a185bf74)" style="fill: none; stroke: #9aa0a6; stroke-opacity: 0.5; stroke-width: 3.6; stroke-linecap: round"/>
   </g>
   <g id="line2d_67">
    <path d="M 388.370308 49.390039 
L 436.467621 49.390039 
" clip-path="url(#pe5a185bf74)" style="fill: none; stroke: #9aa0a6; stroke-opacity: 0.5; stroke-width: 3.6; stroke-linecap: round"/>
   </g>
   <g id="line2d_68">
    <path d="M 388.370308 74.031238 
L 411.989524 74.031238 
" clip-path="url(#pe5a185bf74)" style="fill: none; stroke: #9aa0a6; stroke-opacity: 0.5; stroke-width: 3.6; stroke-linecap: round"/>
   </g>
   <g id="line2d_69">
    <path d="M 388.370308 98.672437 
L 481.558851 98.672437 
" clip-path="url(#pe5a185bf74)" style="fill: none; stroke: #9aa0a6; stroke-opacity: 0.5; stroke-width: 3.6; stroke-linecap: round"/>
   </g>
   <g id="line2d_70">
    <path d="M 388.370308 123.313636 
L 444.13345 123.313636 
" clip-path="url(#pe5a185bf74)" style="fill: none; stroke: #9aa0a6; stroke-opacity: 0.5; stroke-width: 3.6; stroke-linecap: round"/>
   </g>
   <g id="line2d_71">
    <path d="M 388.370308 147.954836 
L 414.837245 147.954836 
" clip-path="url(#pe5a185bf74)" style="fill: none; stroke: #9aa0a6; stroke-opacity: 0.5; stroke-width: 3.6; stroke-linecap: round"/>
   </g>
   <g id="line2d_72">
    <path d="M 388.370308 172.596035 
L 429.39147 172.596035 
" clip-path="url(#pe5a185bf74)" style="fill: none; stroke: #f5b27e; stroke-opacity: 0.5; stroke-width: 3.6; stroke-linecap: round"/>
   </g>
   <g id="line2d_73">
    <path d="M 388.370308 197.237234 
L 439.174797 197.237234 
" clip-path="url(#pe5a185bf74)" style="fill: none; stroke: #f5b27e; stroke-opacity: 0.5; stroke-width: 3.6; stroke-linecap: round"/>
   </g>
   <g id="line2d_74">
    <path d="M 388.370308 221.878433 
L 422.981913 221.878433 
" clip-path="url(#pe5a185bf74)" style="fill: none; stroke: #8291e8; stroke-opacity: 0.5; stroke-width: 3.6; stroke-linecap: round"/>
   </g>
   <g id="patch_6">
    <path d="M 388.370308 239.127273 
L 523.644 239.127273 
" style="fill: none; stroke: #514f52; stroke-width: 1.6; stroke-linejoin: miter; stroke-linecap: square"/>
   </g>
   <g id="line2d_75">
    <path d="M 433.032098 24.748839 
" clip-path="url(#pe5a185bf74)" style="fill: none; stroke: #9aa0a6; stroke-width: 1.5; stroke-linecap: square"/>
    <g clip-path="url(#pe5a185bf74)">
     <use xlink:href="#m9e2e640152" x="433.032098" y="24.748839" style="fill: #9aa0a6"/>
    </g>
   </g>
   <g id="line2d_76">
    <path d="M 436.467621 49.390039 
" clip-path="url(#pe5a185bf74)" style="fill: none; stroke: #9aa0a6; stroke-width: 1.5; stroke-linecap: square"/>
    <g clip-path="url(#pe5a185bf74)">
     <use xlink:href="#m9e2e640152" x="436.467621" y="49.390039" style="fill: #9aa0a6"/>
    </g>
   </g>
   <g id="line2d_77">
    <path d="M 411.989524 74.031238 
" clip-path="url(#pe5a185bf74)" style="fill: none; stroke: #9aa0a6; stroke-width: 1.5; stroke-linecap: square"/>
    <g clip-path="url(#pe5a185bf74)">
     <use xlink:href="#m9e2e640152" x="411.989524" y="74.031238" style="fill: #9aa0a6"/>
    </g>
   </g>
   <g id="line2d_78">
    <path d="M 481.558851 98.672437 
" clip-path="url(#pe5a185bf74)" style="fill: none; stroke: #9aa0a6; stroke-width: 1.5; stroke-linecap: square"/>
    <g clip-path="url(#pe5a185bf74)">
     <use xlink:href="#m9e2e640152" x="481.558851" y="98.672437" style="fill: #9aa0a6"/>
    </g>
   </g>
   <g id="line2d_79">
    <path d="M 444.13345 123.313636 
" clip-path="url(#pe5a185bf74)" style="fill: none; stroke: #9aa0a6; stroke-width: 1.5; stroke-linecap: square"/>
    <g clip-path="url(#pe5a185bf74)">
     <use xlink:href="#m9e2e640152" x="444.13345" y="123.313636" style="fill: #9aa0a6"/>
    </g>
   </g>
   <g id="line2d_80">
    <path d="M 414.837245 147.954836 
" clip-path="url(#pe5a185bf74)" style="fill: none; stroke: #9aa0a6; stroke-width: 1.5; stroke-linecap: square"/>
    <g clip-path="url(#pe5a185bf74)">
     <use xlink:href="#m9e2e640152" x="414.837245" y="147.954836" style="fill: #9aa0a6"/>
    </g>
   </g>
   <g id="line2d_81">
    <path d="M 429.39147 172.596035 
" clip-path="url(#pe5a185bf74)" style="fill: none; stroke: #f5b27e; stroke-width: 1.5; stroke-linecap: square"/>
    <g clip-path="url(#pe5a185bf74)">
     <use xlink:href="#m248cc1327b" x="429.39147" y="172.596035" style="fill: #f5b27e"/>
    </g>
   </g>
   <g id="line2d_82">
    <path d="M 439.174797 197.237234 
" clip-path="url(#pe5a185bf74)" style="fill: none; stroke: #f5b27e; stroke-width: 1.5; stroke-linecap: square"/>
    <g clip-path="url(#pe5a185bf74)">
     <use xlink:href="#m248cc1327b" x="439.174797" y="197.237234" style="fill: #f5b27e"/>
    </g>
   </g>
   <g id="line2d_83">
    <path d="M 422.981913 221.878433 
" clip-path="url(#pe5a185bf74)" style="fill: none; stroke: #8291e8; stroke-width: 1.5; stroke-linecap: square"/>
    <g clip-path="url(#pe5a185bf74)">
     <use xlink:href="#ma16fe32019" x="422.981913" y="221.878433" style="fill: #8291e8"/>
    </g>
   </g>
  </g>
 </g>
 <defs>
  <clipPath id="p35554ac92a">
   <rect x="114.959091" y="7.5" width="236.728961" height="231.627273"/>
  </clipPath>
  <clipPath id="pe5a185bf74">
   <rect x="388.370308" y="7.5" width="135.273692" height="231.627273"/>
  </clipPath>
 </defs>
</svg>
